<?xml version="1.0" encoding="UTF-8"?>
<!DOCTYPE svg PUBLIC "-//W3C//DTD SVG 1.1//EN" "http://www.w3.org/Graphics/SVG/1.1/DTD/svg11.dtd">
<!-- Creator: CorelDRAW X7 -->
<svg xmlns="http://www.w3.org/2000/svg" xml:space="preserve" width="1843px" height="1432px" version="1.1" style="shape-rendering:geometricPrecision; text-rendering:geometricPrecision; image-rendering:optimizeQuality; fill-rule:evenodd; clip-rule:evenodd"
viewBox="0 0 2346 1823"
 xmlns:xlink="http://www.w3.org/1999/xlink">
 <defs>
  <style type="text/css">
   <![CDATA[
    .fil0 {fill:none}
    .fil2 {fill:black}
    .fil1 {fill:white}
   ]]>
  </style>
 </defs>
 <g id="Layer_x0020_1">
  <metadata id="CorelCorpID_0Corel-Layer"/>
  <polygon class="fil0" points="0,0 2346,0 2346,1823 0,1823 "/>
  <g id="_592907696">
   <path class="fil1" d="M905 1485c9,4 43,36 54,46 6,5 56,34 63,37 -10,-4 -22,-10 -33,-15 -20,-10 -17,-7 -31,-20 -5,-4 -51,-42 -53,-48l0 0zm1362 338l-91 0c-24,-46 -106,-181 -120,-205 -7,-10 -4,-7 -16,-13l-94 -47c-7,-3 -13,-6 -20,-9 -11,-6 -9,-3 -15,-13l-67 -104c-12,-18 -38,-82 -48,-94 -3,-4 -11,-12 -13,-14 7,40 33,65 35,92 5,52 -12,41 9,70l84 107c0,1 13,50 29,77 10,19 20,36 30,55 7,11 28,46 30,56 -4,3 -6,6 -10,10 -3,3 -6,5 -10,8l-23 24 -166 0 78 -82c-2,-15 -13,-42 -18,-59 -7,-24 -11,-37 -12,-65 -2,-39 3,-23 -19,-56 -11,-16 -21,-30 -31,-46 -3,-13 17,-67 4,-130 -1,-5 -8,-19 -11,-25 -4,-7 -6,-16 -9,-25 -3,-10 -6,-18 -9,-28 -3,-11 -9,-13 -14,-21 -3,5 -4,-6 -2,7 0,0 2,5 2,5 19,54 26,82 29,142 0,10 -14,91 -17,107 -6,37 8,7 5,48l-4 90c1,9 3,17 4,26l-101 112 -695 0c-5,-2 -10,-4 -16,-6 -15,-7 -32,-14 -48,-21l-61 -26c-8,-3 -5,-1 -11,-7 -13,-13 -124,-110 -128,-115l-46 -163 0 0c8,-13 16,-17 24,-35l35 -80c10,-22 17,-7 25,-32 10,-29 20,-59 29,-87 12,-37 37,-57 43,-74 -6,2 -6,3 -10,9 -28,38 -25,32 -40,79 -12,36 -8,30 -28,42l-67 36c-6,4 -10,15 -13,22 -11,21 -13,26 -27,40 -16,15 -54,58 -69,67 3,18 16,51 21,69 6,17 40,128 45,133l125 116c22,19 19,23 42,33l-139 0c0,0 -1,0 -1,0l-21 -18c-29,-24 -79,-72 -110,-97 -9,-7 -9,-10 -13,-23 -13,-37 -26,-75 -39,-112 -6,-19 -13,-37 -19,-56 -4,-13 -17,-45 -18,-56l0 0c7,-6 16,-12 23,-17 8,-5 15,-10 22,-15l70 -49c21,-14 26,-22 41,-35 18,-15 12,-13 19,-20 2,-2 94,-45 105,-51 65,-31 49,-17 62,-54 4,-12 9,-15 14,-25 -10,5 -21,13 -31,20l-90 58c-15,10 -21,7 -43,8l-95 3c-14,0 -34,-2 -44,4 -40,27 -82,51 -122,77 -21,13 -41,25 -60,38 -19,13 -39,29 -57,40 4,14 45,107 54,129 18,43 36,84 54,128 17,40 11,34 38,55l91 68 -119 0c-4,-3 -8,-7 -13,-10l-14 -11c-9,-8 -18,-15 -28,-23l-21 -16c-7,-6 -16,-34 -20,-43l-14 -36c-3,-6 -6,-12 -8,-18l-22 -53c-3,-7 -5,-12 -8,-18 -2,-6 -5,-12 -7,-17l-37 -90c-3,-7 -5,-10 -8,-17 -4,-12 -11,-23 -14,-36l10 -13c9,-10 20,-18 29,-29l27 -28c4,-5 5,-8 10,-12l98 -102c6,-3 19,-13 24,-15l363 -10c16,0 19,2 31,-6l89 -60c-15,6 -2,8 -38,8 -15,0 -31,1 -46,1 6,-13 0,-68 0,-88 -10,1 -3,8 -3,27l1 26c-1,6 1,5 -2,7 -3,-6 -2,-14 -2,-22l-1 -22 -3 1 1 -10 -6 4 -31 3c-5,-8 -12,-19 -15,-29l13 -24 -7 -11c2,-1 4,-2 6,-5l6 -7c1,8 1,7 4,11l-11 23 12 31c12,-2 16,-4 30,-5 7,-5 5,-6 15,-8l0 74c1,8 1,17 4,22 9,-2 5,2 6,-7 2,-8 -4,-44 2,-65 5,-14 13,-50 19,-59l-4 -1c3,-5 4,-7 7,-14 -21,25 -13,31 -22,64 -5,20 -2,18 -9,19 3,-14 3,-26 3,-42 -6,2 -14,6 -19,6 -12,1 -12,0 -24,3 -3,-15 -12,-25 -6,-39 5,4 13,19 16,25 13,2 29,7 36,-1 -12,2 -22,-2 -33,-3 -6,-17 -21,-27 -13,-36 6,7 11,22 16,28 4,4 30,9 36,4 -7,-4 -21,-5 -31,-6 -15,-9 -7,-61 -3,-77 2,-8 49,-32 56,-33 5,6 9,18 12,26 8,18 3,13 3,31 3,-14 10,-34 8,-50 -4,-8 -10,-12 -14,-19 12,-2 7,3 22,13 0,-12 -2,-9 -8,-15 5,-3 6,-1 8,-6 -1,-13 -1,-28 -1,-41 -3,-50 14,-61 18,-100 2,25 -11,71 -14,99 -1,16 0,40 0,56 0,17 -5,34 -8,51 -6,34 -16,56 -28,86 -21,53 -16,37 -15,100l8 -1c2,-11 1,-32 2,-44 0,-20 28,-81 35,-102 16,-54 14,-109 19,-163 5,-55 25,-84 51,-131 5,-11 33,-40 43,-49 10,-10 25,-21 36,-32 4,-4 7,-7 12,-9 -14,19 -10,19 -28,38 -4,4 -6,8 -10,12 -13,13 -31,35 -40,51 -31,50 -45,74 -48,133 -5,85 -2,73 -22,158 -3,11 -9,22 -14,32 -12,24 -29,76 -30,105l10 -2c2,-19 3,-27 11,-43l35 -72 21 -87c10,-38 10,-22 17,-37 7,-18 15,-68 18,-89 6,-34 19,-51 32,-77 4,-6 7,-12 10,-17 4,-8 5,-11 8,-18 3,-7 7,-12 10,-18l58 -104c5,-9 8,-5 12,-14 5,-12 9,-30 17,-35 -1,10 -7,18 -9,29 8,-4 7,-5 10,-16 2,-7 5,-13 6,-20 4,-5 13,-16 14,-23 2,-9 6,-11 14,-21l3 2c6,-5 8,-17 23,-26l5 1 0 0c4,-9 7,-10 14,-16 6,-4 12,-10 17,-12 -1,3 -3,7 -4,9 17,-12 8,-6 12,-11 9,-11 11,2 16,-10 -40,3 -67,16 -102,23 -6,-4 -10,-12 -16,-17 2,-5 14,-27 17,-29 7,-8 42,-27 53,-34 15,-9 11,-9 33,-11 71,-5 54,-10 116,7 15,4 20,5 32,11 8,-8 28,-17 32,-27 1,3 -1,1 3,3 11,-13 59,-25 76,-31 15,-5 11,-8 25,-1 10,4 44,9 58,12 19,5 38,15 57,14 -8,-15 -21,-18 -41,-26 -18,-7 -35,-8 -55,-10 -41,-5 -75,18 -101,28 2,-7 6,-14 10,-21 9,-17 70,-61 83,-68 6,-2 41,-9 49,-11 10,8 17,16 27,24 19,13 48,92 49,100 -6,-4 -5,0 -15,-3 -33,-12 -67,-20 -103,-23 -21,-3 -106,31 -122,43 -9,7 -46,24 -58,29 -15,8 -25,18 -37,27l-50 37c-19,14 -39,30 -53,48 -9,11 -17,15 -26,24 -5,6 -8,9 -13,13 -22,20 -38,46 -58,68 -7,7 -20,18 -25,25 -4,5 -13,29 -13,37 -3,48 -11,94 -9,143 1,15 0,33 -3,47 -2,11 -4,10 -11,15l-54 47c-23,24 -19,-3 -54,71 -11,24 -11,51 -26,75 -11,19 -34,42 -35,64 10,0 8,-3 13,-8 5,-3 6,-5 11,-10 23,-22 34,-50 45,-57 18,-10 19,-13 27,-34 3,-7 8,-24 12,-28 14,-14 33,-22 49,-31 27,-15 71,-46 93,-69 13,-14 30,-27 34,-47 13,-71 37,-65 53,-109 8,-20 14,-41 20,-61 17,-49 49,-120 84,-160 20,-22 37,-43 58,-63l32 -30c49,-47 22,-45 90,-50 34,-2 39,0 71,7 59,13 71,15 118,44 31,20 22,16 31,51 13,57 20,63 31,130 12,73 5,151 -8,222 -5,27 -9,45 -4,73 6,26 2,47 -3,72 -4,17 -3,17 1,34l19 62c10,38 35,74 38,83 8,28 1,47 2,76 11,10 12,20 28,24 25,6 17,-1 40,-13 0,10 1,5 -4,9l-18 17c5,12 16,20 24,29l38 39c9,16 15,33 25,49 8,14 30,50 39,61 7,8 235,118 270,134 71,35 36,20 58,43 3,13 25,116 38,176zm-1362 -338c-6,-2 -16,-11 -20,-15 8,1 3,-1 11,7 5,4 6,3 9,8l0 0zm747 -40c3,-4 5,-6 8,-10l-8 10zm0 0l-34 44c-30,35 -46,48 -83,76 -68,50 -39,35 -102,56 -79,26 -38,22 -136,22 -11,0 -28,1 -38,-1 -49,-8 -118,-22 -165,-33 -43,-10 -21,-4 -59,-20 -18,-7 -37,-16 -56,-24 -16,-7 -11,-6 -22,-15 -8,-8 -13,-11 -21,-20 -31,-33 -38,-22 -59,-60 -5,-9 -10,-17 -14,-26 -6,-10 -9,-17 -14,-26 -4,-8 -11,-19 -14,-27 6,7 10,16 15,25l30 54c13,22 56,49 77,69 27,27 125,61 160,68 84,16 139,19 224,7 12,-2 75,-22 97,-28 27,-7 46,-28 78,-47 32,-20 56,-35 83,-62l54 -50c8,-8 13,-13 20,-22 4,-4 16,-17 22,-20 -13,28 -8,19 -30,40l-85 82c-6,6 -19,14 -28,19 -32,21 -55,35 -85,57 -7,5 -6,5 -15,8l-93 27c-19,7 -66,5 -89,6 -35,3 -61,-6 -91,-5 2,1 -1,1 4,2l13 2c72,13 60,9 138,8 29,0 44,-7 69,-14 77,-20 56,-11 115,-53 17,-12 33,-24 49,-35 28,-21 48,-49 73,-73 2,-2 3,-3 5,-6l7 -5 0 0zm48 -77l2 -7 -2 7zm20 -57c-6,10 -23,29 -24,43 11,-8 17,-30 28,-39 -4,12 -28,50 -35,57 -9,9 -13,14 -22,24 -7,6 -15,18 -22,25l-61 53c-5,4 -8,8 -13,12l-107 77c-28,19 -70,26 -103,36 -29,8 -51,9 -82,12 -48,5 -36,6 -84,1 -31,-3 -51,-5 -79,-13 -20,-7 -51,-15 -69,-24 -11,-5 -81,-43 -88,-50 -8,-7 -17,-14 -26,-21 -16,-14 -50,-38 -60,-56 -17,-30 -50,-78 -56,-107l47 87c12,22 25,31 45,48l48 42c6,6 76,43 88,50 12,7 85,30 105,32 101,9 67,9 169,-1 25,-3 81,-23 107,-30 17,-6 18,-6 31,-15 20,-15 95,-67 105,-78 11,-13 44,-41 58,-56l68 -71c3,-4 6,-8 10,-13l16 -18c3,-5 2,-4 6,-7l0 0zm0 0l7 -8c-2,3 -3,6 -7,8zm-20 8c1,-15 2,-19 25,-32l0 7c-4,4 -8,8 -12,13 -4,5 -7,9 -13,12l0 0zm42 -40c6,10 2,38 6,53 7,27 8,18 4,49 -4,25 -4,27 -1,52 1,13 -12,33 -17,44 -24,47 -8,49 -27,93 -7,16 -13,24 -15,44 -3,18 -5,35 -7,54 -10,7 -18,17 -28,25 -12,10 -17,17 -27,28 -4,5 -8,7 -13,13 -5,4 -8,9 -13,14 -12,14 -16,18 -30,24l-121 41c-11,3 -38,3 -51,4 -96,5 -106,5 -195,-18 -51,-13 -37,-10 -90,-17 -95,-13 -84,-15 -167,-50 -23,-11 -54,-24 -70,-38l-85 -76c-5,-6 -11,-11 -13,-15l-33 -102c-12,-29 -13,-23 -7,-39 18,-46 19,-43 21,-88 1,-42 20,-53 20,-87 0,-13 -1,-44 3,-52 0,0 0,0 1,-1 9,19 0,95 3,113 8,39 5,16 4,57 0,25 -3,37 5,54 7,16 37,93 47,102l78 73c7,6 112,54 123,59 8,4 189,39 202,42 51,9 54,8 110,4 69,-5 39,5 104,-18 15,-6 29,-11 45,-16 36,-13 13,0 39,-21 12,-9 21,-18 33,-28l33 -28c16,-14 12,-12 24,-36 7,-14 13,-26 20,-40 7,-14 11,-11 24,-37l30 -60c4,-6 10,-12 13,-18 5,-8 7,-41 9,-53 3,-19 12,-30 11,-49 -1,-10 -5,-48 -2,-55l0 0zm-947 -58c1,1 0,-2 2,3 5,11 6,22 10,33 11,39 9,33 28,69 6,10 12,20 18,30 11,20 22,45 39,59 16,13 64,60 77,67 33,17 62,37 98,48 68,23 54,21 119,27 67,7 60,4 132,-3 17,-1 57,-16 75,-22 39,-12 33,-8 67,-30 16,-11 74,-48 85,-61l94 -101c18,-18 26,-36 39,-58 5,-8 14,-24 17,-32 18,5 37,17 37,37 -4,-4 -6,-10 -8,-14l-19 4c-14,28 -17,35 -35,59 -15,19 -30,33 -44,50 -20,24 -72,77 -96,94 -19,12 -36,26 -55,38 -10,7 -18,13 -28,20 -14,11 -86,31 -105,37 -17,5 -23,5 -41,6 -15,1 -30,3 -45,4 -26,2 -104,-1 -129,-9 -13,-4 -24,-8 -37,-12 -46,-15 -55,-20 -97,-44 -49,-27 -30,-15 -68,-50l-50 -45 -59 -106c-6,-10 -9,-24 -13,-35 -3,40 28,125 46,159 6,12 13,22 19,34 3,5 6,11 9,17 8,14 63,59 79,76 8,8 41,20 53,25 26,12 43,24 74,30 59,11 115,22 174,35 25,6 69,1 98,1 45,-1 80,-19 123,-34 13,-4 23,-12 32,-19 10,-8 20,-15 31,-22 5,-4 10,-9 14,-12 29,-29 33,-27 65,-65 7,-9 14,-20 22,-30l45 -59c8,-9 13,-22 19,-34 5,-12 12,-23 16,-35 3,-7 5,-13 7,-20 3,-6 4,-15 6,-20 0,23 -3,27 -10,46 -5,13 -10,27 -15,41 -14,40 -41,67 -64,102 -6,9 -51,64 -63,76l-76 65c-13,10 -63,23 -82,29 -18,6 -25,9 -46,10 -21,1 -88,9 -104,7 -22,-3 -104,-24 -139,-30 -96,-17 -72,-12 -164,-58 -24,-12 -31,-21 -48,-36 -3,-2 -5,-3 -8,-6l-23 -20c-6,-4 -9,-9 -15,-13 -10,-8 -15,-23 -20,-35 -25,-58 -30,-61 -43,-126l-17 -94c-2,-15 -9,-41 -3,-48l0 0zm831 -4c3,1 3,1 5,2 1,0 2,1 3,1 2,2 1,1 3,3l-6 5 -5 -11zm-821 -13l5 -9c9,13 11,45 25,66 12,18 22,38 33,57 6,10 11,19 17,29 9,17 39,45 54,58 6,5 7,8 12,13 22,20 30,22 54,36 20,11 40,23 62,31 92,31 57,21 152,30 21,2 60,-3 82,-5 29,-3 111,-29 137,-46 30,-19 50,-35 82,-55 14,-8 15,-10 25,-21 7,-8 14,-14 22,-23l34 -35c43,-45 31,-38 59,-88l6 -7 10 5c-9,20 -38,71 -53,86l-92 95c-26,17 -91,68 -112,75 -12,4 -23,7 -35,11 -21,7 -52,20 -73,21 -84,7 -85,10 -172,-3l-72 -21c-26,-9 -67,-33 -94,-47 -11,-6 -16,-14 -25,-22l-24 -21c-5,-4 -7,-7 -12,-11 -33,-28 -27,-27 -50,-68 -22,-37 -51,-85 -57,-131l0 0zm-31 -102c-1,-5 6,-21 7,-28 -3,11 -2,23 -7,28zm18 -81l3 -5 -3 5zm-45 10l4 -62 32 -17c4,6 18,38 19,45 -7,7 -43,32 -55,34zm88 129c1,0 2,-1 2,-2l3 -6c7,-8 20,-18 28,-25 13,-11 22,-23 38,-31 16,-9 30,-17 45,-25 13,-6 13,-9 21,-14l86 -54c14,-9 59,-53 74,-68 35,-35 72,-40 114,-62 43,-24 48,-28 70,-72 11,-23 21,-48 33,-71 13,-24 90,-55 118,-60 18,21 34,34 49,58 22,33 24,37 20,85 -1,23 -3,82 8,99 21,35 31,51 55,79 24,28 29,60 42,93 5,13 10,25 15,39 13,31 29,61 43,91 4,9 3,11 9,19l22 33c-15,-9 -29,-16 -45,-24 -9,-5 -11,-9 -20,-13l-68 -34c-7,-4 -4,-4 -9,-8 -15,-15 -17,-5 -34,-33 -4,-7 -4,-4 -9,-9l-57 -45c-6,-5 -12,-10 -19,-14 -6,-5 -16,-7 -25,-10 -17,-5 -37,-9 -56,-11 -17,0 -92,18 -113,23 -21,5 -6,11 -51,16 -12,2 -14,5 -29,5 -23,0 -43,2 -66,1 -15,-1 -19,2 -32,3 -22,1 -44,1 -65,3 -8,0 -19,3 -28,4 -30,3 -61,5 -88,14 16,0 74,-9 97,-11 34,-3 65,3 98,6 26,2 79,3 99,11 32,12 145,48 162,58 23,13 50,25 71,39 21,14 45,28 69,41 13,7 18,15 25,30 4,8 15,31 19,36l38 -38c-4,-7 -21,-35 -25,-40 -9,-12 -23,-22 -33,-33 -14,-17 -17,-15 -39,-25 -30,-13 -59,-27 -87,-44 -12,-7 -31,-18 -43,-23 -17,-7 -85,-27 -95,-35 7,-3 44,-11 54,-13 24,-5 33,-11 56,2 44,26 89,51 135,73 41,19 85,62 107,102 5,-4 4,-4 7,-9 6,-10 14,-21 16,-34l9 3c-5,9 -11,17 -17,27 -5,9 -11,19 -16,28 -10,15 -70,73 -87,91 -11,12 -87,58 -107,72 -18,12 -71,28 -95,37 -14,5 -24,5 -39,6 -28,3 -55,7 -83,5 -21,-2 -62,-3 -80,-9 -22,-7 -43,-15 -66,-22 -21,-7 -40,-21 -59,-30 -10,-6 -18,-11 -29,-17 -16,-8 -78,-72 -87,-89 -15,-29 -33,-56 -51,-83 -5,-8 -25,-58 -21,-66 1,0 1,1 1,1l1 2c1,0 1,1 1,1 2,3 -2,-3 1,2l2 2c3,-5 9,-12 14,-17 3,-4 4,-6 7,-9 5,-6 4,-4 7,-11 -7,1 -5,0 -9,4 -4,3 -4,3 -9,5l0 0zm238 -634c-1,7 -3,13 -4,20 -3,11 -1,13 -10,17 3,-16 6,-27 14,-37l0 0zm0 0l4 -6 -4 6zm4 -6c3,-8 4,-13 9,-18 2,-2 1,-1 3,-2 -2,8 -7,15 -12,20zm64 -32c-2,4 -3,6 -8,8l-1 -13 9 5 0 0zm-24 -13c8,-3 10,-12 21,-13 -3,4 -7,6 -12,10l-20 27c-9,23 14,11 -20,40l-8 7c3,-24 3,-24 14,-41 5,-8 5,-10 11,-15 5,-4 12,-9 14,-15l0 0zm24 13l-11 -10c9,-9 12,-22 28,-27 -9,13 -4,6 -12,14 0,0 1,0 1,1 1,3 14,4 20,10 -6,3 -18,11 -26,12l0 0zm45 -51c12,-1 31,-5 40,2 -2,8 -4,7 -11,11 -28,15 -11,6 -34,4 -6,0 -12,0 -19,-1 3,-3 4,-4 8,-8 4,-3 3,-5 7,-8 12,-10 56,-27 71,-29 -8,5 -6,0 -17,6 -5,3 -10,6 -15,8 -16,6 -18,6 -30,15l0 0zm62 -31c22,-3 36,-15 53,-19 -13,13 -16,11 -39,19 -10,3 -8,3 -14,0l0 0z"/>
   <path class="fil2" d="M436 1461c7,-6 16,-12 23,-17 8,-5 15,-10 22,-15l70 -49c21,-14 26,-22 41,-35 18,-15 12,-13 19,-20 2,-2 94,-45 105,-51 65,-31 49,-17 62,-54 4,-12 9,-15 14,-25 -10,5 -21,13 -31,20l-90 58c-15,10 -21,7 -43,8l-95 3c-14,0 -34,-2 -44,4 -40,27 -82,51 -122,77 -21,13 -41,25 -60,38 -19,13 -39,29 -57,40 4,14 45,107 54,129 18,43 36,84 54,128 17,40 11,34 38,55l91 68 170 0c0,0 -1,0 -1,0l-21 -18c-29,-24 -79,-72 -110,-97 -9,-7 -9,-10 -13,-23 -13,-37 -26,-75 -39,-112 -6,-19 -13,-37 -19,-56 -4,-13 -17,-45 -18,-56l0 0zm1740 362c-24,-46 -106,-181 -120,-205 -7,-10 -4,-7 -16,-13l-94 -47c-7,-3 -13,-6 -20,-9 -11,-6 -9,-3 -15,-13l-67 -104c-12,-18 -38,-82 -48,-94 -3,-4 -11,-12 -13,-14 7,40 33,65 35,92 5,52 -12,41 9,70l84 107c0,1 13,50 29,77 10,19 20,36 30,55 7,11 28,46 30,56 -4,3 -6,6 -10,10 -3,3 -6,5 -10,8l-23 24 219 0z"/>
   <path class="fil2" d="M1794 1292l0 14c-7,-3 -5,-3 -11,-4 4,-6 4,-7 11,-10zm-888 -693c2,3 -4,13 -4,12 -6,5 -5,9 -10,19 -4,7 -7,13 -10,20 4,9 -23,70 -31,85 -4,9 -7,21 -10,31 -6,19 -14,44 -18,62 -5,22 1,56 -2,80 -7,5 -13,5 -23,5 -14,17 -26,11 -49,36 5,-10 10,-9 9,-23 -15,6 -29,52 -58,73 -8,5 -4,1 -8,10 9,-4 12,-9 21,-10 7,-17 10,-12 22,-31 -1,10 -5,19 -9,30 -4,12 -1,3 -12,17 0,0 -2,3 -2,3 -3,2 -1,0 -4,1 0,8 1,7 4,11l-11 23 12 31c12,-2 16,-4 30,-5 7,-5 5,-6 15,-8l0 74c1,8 1,17 4,22 9,-2 5,2 6,-7 2,-8 -4,-44 2,-65 5,-14 13,-50 19,-59l-4 -1c3,-5 4,-7 7,-14 -21,25 -13,31 -22,64 -5,20 -2,18 -9,19 3,-14 3,-26 3,-42 -6,2 -14,6 -19,6 -12,1 -12,0 -24,3 -3,-15 -12,-25 -6,-39 5,4 13,19 16,25 13,2 29,7 36,-1 -12,2 -22,-2 -33,-3 -6,-17 -21,-27 -13,-36 6,7 11,22 16,28 4,4 30,9 36,4 -7,-4 -21,-5 -31,-6 -15,-9 -7,-61 -3,-77 2,-8 49,-32 56,-33 5,6 9,18 12,26 8,18 3,13 3,31 3,-14 10,-34 8,-50 -4,-8 -10,-12 -14,-19 12,-2 7,3 22,13 0,-12 -2,-9 -8,-15 5,-3 6,-1 8,-6 -1,-13 -1,-28 -1,-41 -3,-50 14,-61 18,-100 2,25 -11,71 -14,99 -1,16 0,40 0,56 0,17 -5,34 -8,51 -6,34 -16,56 -28,86 -21,53 -16,37 -15,100l8 -1c2,-11 1,-32 2,-44 0,-20 28,-81 35,-102 16,-54 14,-109 19,-163 5,-55 25,-84 51,-131 5,-11 33,-40 43,-49 10,-10 25,-21 36,-32 4,-4 7,-7 12,-9 -14,19 -10,19 -28,38 -4,4 -6,8 -10,12 -13,13 -31,35 -40,51 -31,50 -45,74 -48,133 -5,85 -2,73 -22,158 -3,11 -9,22 -14,32 -12,24 -29,76 -30,105l10 -2c2,-19 3,-27 11,-43l35 -72 21 -87c10,-38 10,-22 17,-37 7,-18 15,-68 18,-89 6,-34 19,-51 32,-77 4,-6 7,-12 10,-17 4,-8 5,-11 8,-18 3,-7 7,-12 10,-18l58 -104c5,-9 8,-5 12,-14 5,-12 9,-30 17,-35 1,-7 3,-8 6,-14 4,-8 2,-8 10,-11l-9 18c4,-5 13,-16 14,-23 2,-9 6,-11 14,-21l3 2c6,-5 8,-17 23,-26l5 1c4,-9 7,-10 14,-16 6,-4 12,-10 17,-12 -1,3 -3,7 -4,9 17,-12 8,-6 12,-11 9,-11 11,2 16,-10 -40,3 -67,16 -102,23 -6,-4 -10,-12 -16,-17 2,-5 14,-27 17,-29 7,-8 42,-27 53,-34 15,-9 11,-9 33,-11 71,-5 54,-10 116,7 15,4 20,5 32,11 8,-8 28,-17 32,-27 1,3 -1,1 3,3 11,-13 59,-25 76,-31 15,-5 11,-8 25,-1 10,4 44,9 58,12 19,5 38,15 57,14 -8,-15 -21,-18 -41,-26 -18,-7 -35,-8 -55,-10 -41,-5 -75,18 -101,28 2,-7 6,-14 10,-21 9,-17 70,-61 83,-68 6,-2 41,-9 49,-11 10,8 17,16 27,24 19,13 48,92 49,100 -6,-4 -5,0 -15,-3 -33,-12 -67,-20 -103,-23 -21,-3 -106,31 -122,43 -9,7 -46,24 -58,29 -15,8 -25,18 -37,27l-50 37c-19,14 -39,30 -53,48 -9,11 -17,15 -26,24 -5,6 -8,9 -13,13 -22,20 -38,46 -58,68 -7,7 -20,18 -25,25 -4,5 -13,29 -13,37 -3,48 -11,94 -9,143 1,15 0,33 -3,47 -2,11 -4,10 -11,15l-54 47c-23,24 -19,-3 -54,71 -11,24 -11,51 -26,75 -11,19 -34,42 -35,64 10,0 8,-3 13,-8 5,-3 6,-5 11,-10 23,-22 34,-50 45,-57 18,-10 19,-13 27,-34 3,-7 8,-24 12,-28 14,-14 33,-22 49,-31 27,-15 71,-46 93,-69 13,-14 30,-27 34,-47 13,-71 37,-65 53,-109 8,-20 14,-41 20,-61 17,-49 49,-120 84,-160 20,-22 37,-43 58,-63l32 -30c49,-47 22,-45 90,-50 34,-2 39,0 71,7 59,13 71,15 118,44 31,20 22,16 31,51 13,57 20,63 31,130 12,73 5,151 -8,222 -5,27 -9,45 -4,73 6,26 2,47 -3,72 -4,17 -3,17 1,34l19 62c10,38 35,74 38,83 8,28 1,47 2,76 11,10 12,20 28,24 25,6 17,-1 40,-13 0,10 1,5 -4,9l-18 17c5,12 16,20 24,29l38 39c9,16 15,33 25,49 8,14 30,50 39,61 7,8 235,118 270,134 71,35 36,20 58,43 -2,-20 -7,-24 -26,-36 -27,-18 -97,-71 -127,-93l-54 -39c-12,-10 -24,-18 -36,-27 -7,-4 -11,-8 -18,-13l-19 -14c-8,-2 -28,-13 -38,-18 -20,-10 -22,-7 -32,-27 -6,-10 -45,-40 -57,-53 -4,-5 0,0 -4,-5 -3,-6 -15,-11 -21,-14 -1,-1 -2,-1 -2,-2 0,-26 0,-12 3,-21 1,-3 0,-19 0,-23 -16,8 -20,25 -51,8 -2,-1 -1,-1 -2,-1l-1 -10c4,2 -3,5 13,9 33,9 16,-1 44,-14 6,-7 14,-46 14,-52 -16,27 -11,46 -29,59 -14,11 -9,5 -39,-1 0,-32 10,-54 5,-108l-24 -91c-3,-12 24,-68 29,-82 12,-30 20,-55 29,-86 18,-55 4,-60 -1,-97 -6,-56 -2,-41 -17,-97 -5,-16 -7,-32 -11,-47 -13,-40 -17,-46 -32,-83 -3,-6 -5,-14 -7,-20 -4,-7 -7,-12 -10,-19 7,8 15,17 21,25l-3 2c2,5 6,13 9,18 6,13 3,10 14,15 -3,-30 -6,-32 -21,-53 -5,-8 -9,-16 -15,-24 -5,-8 -10,-14 -15,-23 -7,-10 -4,-7 -14,-14 -28,-19 -17,-11 -41,-46 -7,-10 -28,-27 -37,-38 -4,-5 -5,-6 -9,-11 -7,-7 -7,-3 -12,-7 -3,-2 -9,-21 -12,-27 -13,-31 -15,-41 -25,-70 -3,-12 -1,-14 -8,-19l-26 -24c-4,-3 -5,-6 -10,-9 -6,0 -51,12 -55,14 -7,4 -28,28 -36,35 -13,11 -47,40 -55,50l-14 23c-7,0 -9,-2 -19,-2l-63 -2c-14,-3 -23,-5 -39,-5 -6,0 -6,1 -9,2l-71 7c-10,1 -74,41 -86,48 -6,4 -6,5 -10,10l-38 51c-3,5 -6,8 -9,14l-19 26c-5,7 -20,38 -25,42 -7,6 -31,24 -35,30 -6,9 -10,22 -15,31l0 0z"/>
   <path class="fil2" d="M1392 1439l3 1c0,0 4,1 4,1 -22,7 -52,24 -75,29l-94 10c-24,-1 -79,-4 -99,-11 -84,-29 -74,-24 -151,-69 -13,-8 -40,-41 -56,-55 12,-14 28,-29 45,-41 29,-19 23,-18 63,-16 52,4 75,3 123,5 28,1 67,24 94,34 23,9 74,22 90,37 17,14 42,54 53,75l0 0zm-506 -140c-4,-3 -38,-53 -40,-59 6,-5 40,-37 48,-39 6,-2 18,-3 24,-4 16,-3 31,-9 47,-13 77,-20 71,-10 157,-2 56,5 51,0 100,17l132 45 70 49c11,10 20,16 34,24 18,11 16,11 30,30 8,10 18,23 25,34 -3,3 -3,3 -7,5 -3,2 -5,3 -8,4 -11,7 -42,26 -49,28 -10,-12 -23,-33 -31,-46 -18,-30 -36,-42 -65,-64 -17,-13 -50,-22 -73,-30 -26,-8 -50,-18 -74,-28 -35,-13 -47,-12 -89,-13 -32,-1 -64,-5 -96,-8 -15,-1 -69,15 -80,23 -13,8 -43,41 -55,47l0 0zm643 -332c4,6 7,12 11,18 19,29 23,20 38,52 21,47 29,76 62,114 6,8 8,6 14,16l22 37c10,16 27,23 40,48 -8,-4 -16,-9 -26,-14 -15,-8 -31,-26 -44,-32 -12,-5 -15,-7 -25,-13 -8,-6 -14,-10 -25,-15 -5,-3 -16,-14 -19,-19 -11,-13 -9,-2 -19,-19 -5,-8 -10,-16 -15,-24 -13,-23 -16,-31 -33,-45 -8,-6 -33,-31 -42,-34 -27,-12 -34,-16 -59,-17 -34,-2 -32,1 -67,9 -36,9 -23,4 -56,22 -73,40 -24,16 -82,34l-68 7c-16,1 -20,-1 -36,3 -10,2 -24,6 -34,6 -12,0 -25,0 -36,2 -60,13 -70,7 -124,29 -19,8 -40,12 -58,19 3,-7 12,-13 17,-18 5,-3 5,-5 9,-8 16,-15 34,-22 56,-27 27,-5 48,-25 69,-29 24,-4 48,-19 70,-30 7,-3 25,-8 47,-19 32,-16 35,-19 60,-39 6,-5 12,-8 18,-15 24,-22 35,-24 64,-34 9,-3 55,-31 63,-36 8,-5 10,-10 20,-13 55,-15 33,-13 83,-9 8,0 43,13 48,18l33 33c6,9 21,32 24,42l0 0zm-694 193c5,-2 5,-2 9,-5 4,-4 2,-3 9,-4 -3,7 -2,5 -7,11 -3,3 -4,5 -7,9 -5,5 -11,12 -14,17l-2 -2c-3,-5 1,1 -1,-2 0,0 0,-1 -1,-1l-1 -2c0,0 0,-1 -1,-1 -4,8 16,58 21,66 18,27 36,54 51,83 9,17 71,81 87,89 11,6 19,11 29,17 19,9 38,23 59,30 23,7 44,15 66,22 18,6 59,7 80,9 28,2 55,-2 83,-5 15,-1 25,-1 39,-6 24,-9 77,-25 95,-37 20,-14 96,-60 107,-72 17,-18 77,-76 87,-91 5,-9 11,-19 16,-28 6,-10 12,-18 17,-27l-9 -3c-2,13 -10,24 -16,34 -3,5 -2,5 -7,9 -22,-40 -66,-83 -107,-102 -46,-22 -91,-47 -135,-73 -23,-13 -32,-7 -56,-2 -10,2 -47,10 -54,13 10,8 78,28 95,35 12,5 31,16 43,23 28,17 57,31 87,44 22,10 25,8 39,25 10,11 24,21 33,33 4,5 21,33 25,40l-38 38c-4,-5 -15,-28 -19,-36 -7,-15 -12,-23 -25,-30 -24,-13 -48,-27 -69,-41 -21,-14 -48,-26 -71,-39 -17,-10 -130,-46 -162,-58 -20,-8 -73,-9 -99,-11 -33,-3 -64,-9 -98,-6 -23,2 -81,11 -97,11 27,-9 58,-11 88,-14 9,-1 20,-4 28,-4 21,-2 43,-2 65,-3 13,-1 17,-4 32,-3 23,1 43,-1 66,-1 15,0 17,-3 29,-5 45,-5 30,-11 51,-16 21,-5 96,-23 113,-23 19,2 39,6 56,11 9,3 19,5 25,10 7,4 13,9 19,14l57 45c5,5 5,2 9,9 17,28 19,18 34,33 5,4 2,4 9,8l68 34c9,4 11,8 20,13 16,8 30,15 45,24l-22 -33c-6,-8 -5,-10 -9,-19 -14,-30 -30,-60 -43,-91 -5,-14 -10,-26 -15,-39 -13,-33 -18,-65 -42,-93 -24,-28 -34,-44 -55,-79 -11,-17 -9,-76 -8,-99 4,-48 2,-52 -20,-85 -15,-24 -31,-37 -49,-58 -28,5 -105,36 -118,60 -12,23 -22,48 -33,71 -22,44 -27,48 -70,72 -42,22 -79,27 -114,62 -15,15 -60,59 -74,68l-86 54c-8,5 -8,8 -21,14 -15,8 -29,16 -45,25 -16,8 -25,20 -38,31 -8,7 -21,17 -28,25l-3 6c0,1 -1,2 -2,2l0 0z"/>
   <path class="fil2" d="M661 1485c8,-13 16,-17 24,-35l35 -80c10,-22 17,-7 25,-32 10,-29 20,-59 29,-87 12,-37 37,-57 43,-74 -6,2 -6,3 -10,9 -28,38 -25,32 -40,79 -12,36 -8,30 -28,42l-67 36c-6,4 -10,15 -13,22 -11,21 -13,26 -27,40 -16,15 -54,58 -69,67 3,18 16,51 21,69 6,17 40,128 45,133l125 116c22,19 19,23 42,33l175 0c-5,-2 -10,-4 -16,-6 -15,-7 -32,-14 -48,-21l-61 -26c-8,-3 -5,-1 -11,-7 -13,-13 -124,-110 -128,-115l-46 -163 0 0zm1130 338l78 -82c-2,-15 -13,-42 -18,-59 -7,-24 -11,-37 -12,-65 -2,-39 3,-23 -19,-56 -11,-16 -21,-30 -31,-46 -3,-13 17,-67 4,-130 -1,-5 -8,-19 -11,-25 -4,-7 -6,-16 -9,-25 -3,-10 -6,-18 -9,-28 -3,-11 -9,-13 -14,-21 -3,5 -4,-6 -2,7 0,0 2,5 2,5 19,54 26,82 29,142 0,10 -14,91 -17,107 -6,37 8,7 5,48l-4 90c1,9 3,17 4,26l-101 112 125 0z"/>
   <path class="fil2" d="M1742 1279c-3,7 1,45 2,55 1,19 -8,30 -11,49 -2,12 -4,45 -9,53 -3,6 -9,12 -13,18l-30 60c-13,26 -17,23 -24,37 -7,14 -13,26 -20,40 -12,24 -8,22 -24,36l-33 28c-12,10 -21,19 -33,28 -26,21 -3,8 -39,21 -16,5 -30,10 -45,16 -65,23 -35,13 -104,18 -56,4 -59,5 -110,-4 -13,-3 -194,-38 -202,-42 -11,-5 -116,-53 -123,-59l-78 -73c-10,-9 -40,-86 -47,-102 -8,-17 -5,-29 -5,-54 1,-41 4,-18 -4,-56 -3,-19 6,-95 -3,-114 -1,1 -1,1 -1,1 -4,8 -3,39 -3,52 0,34 -19,45 -20,87 -2,45 -3,42 -21,88 -6,16 -5,10 7,39l33 102c2,4 8,9 13,15l85 76c16,14 47,27 70,38 83,35 72,37 167,50 53,7 39,4 90,17 89,23 99,23 195,18 13,-1 40,-1 51,-4l121 -41c14,-6 18,-10 30,-24 5,-5 8,-10 13,-14 5,-6 9,-8 13,-13 10,-11 15,-18 27,-28 10,-8 18,-18 28,-25 2,-19 4,-36 7,-54 2,-20 8,-28 15,-44 19,-44 3,-46 27,-93 5,-11 18,-31 17,-44 -3,-25 -3,-27 1,-52 4,-31 3,-22 -4,-49 -4,-15 0,-43 -6,-53l0 0z"/>
   <path class="fil2" d="M807 1257c-4,-11 -5,-22 -10,-33 -2,-5 -1,-2 -2,-3 -6,7 1,33 3,48l17 94c13,65 18,68 43,126 5,12 10,27 20,35 6,4 9,9 15,13l23 20c3,3 5,4 8,6 17,15 24,24 48,36 92,46 68,41 164,58 35,6 117,27 139,30 16,2 83,-6 104,-7 21,-1 28,-4 46,-10 19,-6 69,-19 82,-29l76 -65c12,-12 57,-67 63,-76 23,-35 50,-62 64,-102 5,-14 10,-28 15,-41 7,-19 10,-23 10,-46 -2,5 -3,14 -6,20 -2,7 -4,13 -7,20 -4,12 -11,23 -16,35 -6,12 -11,25 -19,34l-45 59c-8,10 -15,21 -22,30 -32,38 -36,36 -65,65 -4,3 -9,8 -14,12 -11,7 -21,14 -31,22 -9,7 -19,15 -32,19 -43,15 -78,33 -123,34 -29,0 -73,5 -98,-1 -59,-13 -115,-24 -174,-35 -31,-6 -48,-18 -74,-30 -12,-5 -45,-17 -53,-25 -16,-17 -71,-62 -79,-76 -3,-6 -6,-12 -9,-17 -6,-12 -13,-22 -19,-34 -18,-34 -49,-119 -46,-159 4,11 7,25 13,35l59 106 50 45c38,35 19,23 68,50 42,24 51,29 97,44 13,4 24,8 37,12 25,8 103,11 129,9 15,-1 30,-3 45,-4 18,-1 24,-1 41,-6 19,-6 91,-26 105,-37 10,-7 18,-13 28,-20 19,-12 36,-26 55,-38 24,-17 76,-70 96,-94 14,-17 29,-31 44,-50 18,-24 21,-31 35,-59l19 -4c2,4 4,10 8,14 0,-20 -19,-32 -37,-37 -3,8 -12,24 -17,32 -13,22 -21,40 -39,58l-94 101c-11,13 -69,50 -85,61 -34,22 -28,18 -67,30 -18,6 -58,21 -75,22 -72,7 -65,10 -132,3 -65,-6 -51,-4 -119,-27 -36,-11 -65,-31 -98,-48 -13,-7 -61,-54 -77,-67 -17,-14 -28,-39 -39,-59 -6,-10 -12,-20 -18,-30 -19,-36 -17,-30 -28,-69l0 0z"/>
   <path class="fil1" d="M1529 967c1,10 21,80 24,85 7,12 12,25 18,38l46 63c8,10 23,16 30,26 10,16 9,21 24,32 10,8 23,16 28,28 -13,-7 -58,-48 -77,-61 -7,-5 -13,-9 -21,-14 -11,-8 -39,-45 -47,-57l-50 -87 -29 -40c-3,-4 -36,-25 -42,-29 -13,1 -29,4 -42,6 -11,2 -23,9 -33,14 -8,4 -24,11 -31,16 -2,2 -4,3 -7,5l-21 15c-29,20 -61,38 -93,49 -9,3 -28,11 -37,12 -14,2 -29,3 -42,5l-121 24c-43,8 -33,4 -75,20 -23,9 -47,17 -70,27 8,-14 23,-19 37,-25 13,-5 33,-14 46,-16 69,-15 46,-15 72,-23 32,-9 25,3 71,-21 16,-9 32,-6 49,-13 54,-23 60,-22 102,-53 6,-4 13,-7 19,-13l62 -62c10,-7 31,-14 43,-20 26,-10 26,-8 55,-7 28,0 28,4 49,13 20,9 18,6 35,28 8,9 22,24 28,35l0 0zm0 0c-3,-10 -18,-33 -24,-42l-33 -33c-5,-5 -40,-18 -48,-18 -50,-4 -28,-6 -83,9 -10,3 -12,8 -20,13 -8,5 -54,33 -63,36 -29,10 -40,12 -64,34 -6,7 -12,10 -18,15 -25,20 -28,23 -60,39 -22,11 -40,16 -47,19 -22,11 -46,26 -70,30 -21,4 -42,24 -69,29 -22,5 -40,12 -56,27 -4,3 -4,5 -9,8 -5,5 -14,11 -17,18 18,-7 39,-11 58,-19 54,-22 64,-16 124,-29 11,-2 24,-2 36,-2 10,0 24,-4 34,-6 16,-4 20,-2 36,-3l68 -7c58,-18 9,6 82,-34 33,-18 20,-13 56,-22 35,-8 33,-11 67,-9 25,1 32,5 59,17 9,3 34,28 42,34 17,14 20,22 33,45 5,8 10,16 15,24 10,17 8,6 19,19 3,5 14,16 19,19 11,5 17,9 25,15 10,6 13,8 25,13 13,6 29,24 44,32 10,5 18,10 26,14 -13,-25 -30,-32 -40,-48l-22 -37c-6,-10 -8,-8 -14,-16 -33,-38 -41,-67 -62,-114 -15,-32 -19,-23 -38,-52 -4,-6 -7,-12 -11,-18l0 0z"/>
   <path class="fil1" d="M886 1299c12,-6 42,-39 55,-47 11,-8 65,-24 80,-23 32,3 64,7 96,8 42,1 54,0 89,13 24,10 48,20 74,28 23,8 56,17 73,30 29,22 47,34 65,64 8,13 21,34 31,46 7,-2 38,-21 49,-28 3,-1 5,-2 8,-4 4,-2 4,-2 7,-5 -7,-11 -17,-24 -25,-34 -14,-19 -12,-19 -30,-30 -14,-8 -23,-14 -34,-24l-70 -49 -132 -45c-49,-17 -44,-12 -100,-17 -86,-8 -80,-18 -157,2 -16,4 -31,10 -47,13 -6,1 -18,2 -24,4 -8,3 -42,34 -48,39 2,6 36,56 40,59l0 0z"/>
   <path class="fil1" d="M965 1377c21,-20 15,-16 47,-16 77,1 40,4 119,-4 31,-4 23,-6 47,7 30,16 50,31 84,44 11,4 61,21 67,28 5,6 10,14 12,20 -31,7 -21,5 -54,7 -17,0 -43,3 -59,2 -9,-1 -19,-2 -29,-3 -24,-3 -39,-29 -63,-25 -21,2 -32,7 -51,0 -19,-6 -28,-8 -44,-17 -22,-11 -59,-26 -76,-43l0 0zm427 62c-11,-21 -36,-61 -53,-75 -16,-15 -67,-28 -90,-37 -27,-10 -66,-33 -94,-34 -48,-2 -71,-1 -123,-5 -40,-2 -34,-3 -63,16 -17,12 -33,27 -45,41 16,14 43,47 56,55 77,45 67,40 151,69 20,7 75,10 99,11l94 -10c23,-5 53,-22 75,-29 0,0 -4,-1 -4,-1l-3 -1 0 0z"/>
   <path class="fil2" d="M1529 967c-6,-11 -20,-26 -28,-35 -17,-22 -15,-19 -35,-28 -21,-9 -21,-13 -49,-13 -29,-1 -29,-3 -55,7 -12,6 -33,13 -43,20l-62 62c-6,6 -13,9 -19,13 -42,31 -48,30 -102,53 -17,7 -33,4 -49,13 -46,24 -39,12 -71,21 -26,8 -3,8 -72,23 -13,2 -33,11 -46,16 -14,6 -29,11 -37,25 23,-10 47,-18 70,-27 42,-16 32,-12 75,-20l121 -24c13,-2 28,-3 42,-5 9,-1 28,-9 37,-12 32,-11 64,-29 93,-49l21 -15c3,-2 5,-3 7,-5 7,-5 23,-12 31,-16 10,-5 22,-12 33,-14 13,-2 29,-5 42,-6 6,4 39,25 42,29l29 40 50 87c8,12 36,49 47,57 8,5 14,9 21,14 19,13 64,54 77,61 -5,-12 -18,-20 -28,-28 -15,-11 -14,-16 -24,-32 -7,-10 -22,-16 -30,-26l-46 -63c-6,-13 -11,-26 -18,-38 -3,-5 -23,-75 -24,-85l0 0z"/>
   <path class="fil2" d="M965 1377c17,17 54,32 76,43 16,9 25,11 44,17 19,7 30,2 51,0 24,-4 39,22 63,25 10,1 20,2 29,3 16,1 42,-2 59,-2 33,-2 23,0 54,-7 -2,-6 -7,-14 -12,-20 -6,-7 -56,-24 -67,-28 -34,-13 -54,-28 -84,-44 -24,-13 -16,-11 -47,-7 -79,8 -42,5 -119,4 -32,0 -26,-4 -47,16l0 0z"/>
   <path class="fil1" d="M1779 1256c-5,-5 -23,-35 -24,-44 -1,-15 13,-22 26,-34 6,-7 -6,4 1,-2 3,-2 0,0 4,-2 7,6 15,19 18,28 -5,12 -18,46 -25,54l0 0zm36 -54c-1,-8 -27,-45 -33,-51l-16 12 10 -25 6 2 -1 -14c17,1 8,15 14,25 3,5 6,9 10,13 -1,-9 -3,-14 -9,-16 0,-8 1,-12 -1,-17l-4 -6c-4,-7 -5,-8 2,-22 4,-9 17,-38 17,-45 -8,11 -29,69 -38,80 -1,-39 19,-78 29,-114 11,-35 12,-160 5,-195 -3,-20 -5,-40 -9,-60 -8,-41 -17,-77 -25,-116 -1,-7 -5,-20 -9,-25 -1,-2 -3,-4 -4,-7 -1,-1 -2,-4 -2,-4 -1,-4 -1,-1 1,-3 0,-5 -7,-20 -9,-24 -11,-5 -8,-2 -14,-15 -3,-5 -7,-13 -9,-18l3 -2c-6,-8 -14,-17 -21,-25 3,7 6,12 10,19 2,6 4,14 7,20 15,37 19,43 32,83 4,15 6,31 11,47 15,56 11,41 17,97 5,37 19,42 1,97 -9,31 -17,56 -29,86 -5,14 -32,70 -29,82l24 91c5,54 -5,76 -5,108 30,6 25,12 39,1 18,-13 13,-32 29,-59l0 0z"/>
   <path class="fil2" d="M885 1347c-6,-10 -11,-19 -17,-29 -11,-19 -21,-39 -33,-57 -14,-21 -16,-53 -25,-66l-5 9c6,46 35,94 57,131 23,41 17,40 50,68 5,4 7,7 12,11l24 21c9,8 14,16 25,22 27,14 68,38 94,47l72 21c87,13 88,10 172,3 21,-1 52,-14 73,-21 12,-4 23,-7 35,-11 21,-7 86,-58 112,-75l92 -95c15,-15 44,-66 53,-86l-10 -5 -6 7c-28,50 -16,43 -59,88l-34 35c-8,9 -15,15 -22,23 -10,11 -11,13 -25,21 -32,20 -52,36 -82,55 -26,17 -108,43 -137,46 -22,2 -61,7 -82,5 -95,-9 -60,1 -152,-30 -22,-8 -42,-20 -62,-31 -24,-14 -32,-16 -54,-36 -5,-5 -6,-8 -12,-13 -15,-13 -45,-41 -54,-58l0 0z"/>
   <path class="fil2" d="M747 1141c0,14 2,18 3,28l-326 51c-19,3 -35,5 -54,9 -18,3 -28,-1 -42,22 6,-3 19,-13 24,-15l363 -10c16,0 19,2 31,-6l89 -60c-15,6 -2,8 -38,8 -15,0 -31,1 -46,1 6,-13 0,-68 0,-88 -10,1 -3,8 -3,27l1 26c-1,6 1,5 -2,7l0 0z"/>
   <path class="fil2" d="M1652 1445l-7 5c-2,3 -3,4 -5,6 -25,24 -45,52 -73,73 -16,11 -32,23 -49,35 -59,42 -38,33 -115,53 -25,7 -40,14 -69,14 -78,1 -66,5 -138,-8l-13 -2c-5,-1 -2,-1 -4,-2 30,-1 56,8 91,5 23,-1 70,1 89,-6l93 -27c9,-3 8,-3 15,-8 30,-22 53,-36 85,-57 9,-5 22,-13 28,-19l85 -82c22,-21 17,-12 30,-40 -6,3 -18,16 -22,20 -7,9 -12,14 -20,22l-54 50c-27,27 -51,42 -83,62 -32,19 -51,40 -78,47 -22,6 -85,26 -97,28 -85,12 -140,9 -224,-7 -35,-7 -133,-41 -160,-68 -21,-20 -64,-47 -77,-69l-30 -54c-5,-9 -9,-18 -15,-25 3,8 10,19 14,27 5,9 8,16 14,26 4,9 9,17 14,26 21,38 28,27 59,60 8,9 13,12 21,20 11,9 6,8 22,15 19,8 38,17 56,24 38,16 16,10 59,20 47,11 116,25 165,33 10,2 27,1 38,1 98,0 57,4 136,-22 63,-21 34,-6 102,-56 37,-28 53,-41 83,-76l34 -44 0 0z"/>
   <path class="fil2" d="M1720 1311c-4,3 -3,2 -6,7l-16 18c-4,5 -7,9 -10,13l-68 71c-14,15 -47,43 -58,56 -10,11 -85,63 -105,78 -13,9 -14,9 -31,15 -26,7 -82,27 -107,30 -102,10 -68,10 -169,1 -20,-2 -93,-25 -105,-32 -12,-7 -82,-44 -88,-50l-48 -42c-20,-17 -33,-26 -45,-48l-47 -87c6,29 39,77 56,107 10,18 44,42 60,56 9,7 18,14 26,21 7,7 77,45 88,50 18,9 49,17 69,24 28,8 48,10 79,13 48,5 36,4 84,-1 31,-3 53,-4 82,-12 33,-10 75,-17 103,-36l107 -77c5,-4 8,-8 13,-12l61 -53c7,-7 15,-19 22,-25 9,-10 13,-15 22,-24 7,-7 31,-45 35,-57 -11,9 -17,31 -28,39 1,-14 18,-33 24,-43l0 0z"/>
   <path class="fil2" d="M1810 1058l11 -49c3,-14 4,-66 3,-85 0,-9 -3,-18 -3,-26l0 -44c0,-8 1,-7 1,-14 2,-17 -16,-116 -25,-136 -2,-5 -2,-7 -4,-11l-15 -31c-3,-6 -1,-6 -6,-9 8,39 17,75 25,116 4,20 6,40 9,60 7,35 6,160 -5,195 -10,36 -30,75 -29,114 9,-11 30,-69 38,-80l0 0z"/>
   <path class="fil1" d="M674 1042c2,-9 -2,-6 8,-7 -4,11 -1,4 -8,7zm6 3c2,-12 5,-17 12,-19 -2,3 -4,6 -6,10l-6 9 0 0zm183 -357c-1,4 -2,7 -3,10 -3,6 -1,5 -6,7 -9,37 -38,105 -36,139 -2,55 -10,33 -12,51 3,-3 4,-4 11,-5l2 9 -30 10c-7,2 -7,7 -10,11l-12 7c-6,-7 0,-14 5,-22l30 -4c-3,-4 7,-5 -8,-3l-21 0 -6 -1c6,-6 9,-7 14,-14l22 0c8,-2 1,0 4,-3l-1 0 -26 -3c-3,2 -16,11 -17,13 -4,6 -2,15 -9,18 -1,-2 -3,2 -1,-6 0,-4 3,-8 4,-17 -7,2 -9,12 -12,24 11,2 9,0 14,4 -2,10 -9,11 -16,18 -13,13 -23,49 -38,56 1,-5 2,-4 3,-9l-5 9c-8,1 -10,3 -17,6 -2,2 -4,15 -5,19l8 -1c0,7 1,1 -1,7 -2,4 -2,3 -4,8l-7 -1 -12 40c-1,7 -1,9 2,14 0,0 0,-1 1,-1 0,0 0,-1 1,-1 0,0 1,-1 1,-2l2 -10 -4 0 6 -16c8,-1 7,-2 12,-1 -3,4 3,2 -6,4 -1,0 -2,0 -3,0 -5,2 -2,1 -4,2 3,3 0,2 6,3 1,0 5,-1 7,-1l-9 21 17 30 32 -4 4 -4c0,-3 -12,0 -15,0 -5,1 -10,1 -15,2 -5,-8 -13,-20 -16,-29l10 -21 -7 -7c3,-8 10,-15 13,-23 -1,0 -5,1 -5,1 -11,-1 -3,0 -7,-3 3,-3 0,-1 4,-3 9,-6 13,-5 20,-4l-4 7c3,-1 1,1 4,-1 0,0 2,-3 2,-3 11,-14 8,-5 12,-17 4,-11 8,-20 9,-30 -12,19 -15,14 -22,31 -9,1 -12,6 -21,10 4,-9 0,-5 8,-10 29,-21 43,-67 58,-73 1,14 -4,13 -9,23 23,-25 35,-19 49,-36 10,0 16,0 23,-5 3,-24 -3,-58 2,-80 4,-18 12,-43 18,-62 3,-10 6,-22 10,-31 8,-15 35,-76 31,-85 -3,5 -6,11 -9,18 -2,4 -3,5 -5,9 -3,4 -4,5 -5,11l0 0z"/>
   <path class="fil2" d="M773 971l4 13 -15 9 1 -17 10 -5 0 0zm-26 60c12,-2 48,-27 55,-34 -1,-7 -15,-39 -19,-45l-32 17 -4 62z"/>
   <path class="fil2" d="M1790 1195l5 7 -8 15 -7 -14 10 -8zm-11 61c7,-8 20,-42 25,-54 -3,-9 -11,-22 -18,-28 -4,2 -1,0 -4,2 -7,6 5,-5 -1,2 -13,12 -27,19 -26,34 1,9 19,39 24,44l0 0z"/>
   <path class="fil2" d="M708 978l10 -19 -10 19zm33 -83c3,2 3,0 1,11 -1,8 -1,5 1,9l13 0c-6,12 -17,11 -26,10l2 -20c-3,2 -4,3 -7,6 -4,4 -5,4 -6,9 -2,8 -7,14 -10,22 -4,10 -5,12 -13,16 -1,2 0,1 -2,4 0,0 -1,3 -1,4 -5,9 -7,14 -7,27 7,-3 9,-5 17,-6l5 -9c-1,5 -2,4 -3,9 15,-7 25,-43 38,-56 7,-7 14,-8 16,-18 -5,-4 -3,-2 -14,-4 3,-12 5,-22 12,-24 1,-3 -1,0 1,-3 1,-1 2,-2 3,-3 3,-2 2,0 5,-4 -9,2 -12,7 -19,15 0,0 -1,1 -1,1 0,0 -1,1 -2,1 -1,1 -2,2 -3,3l0 0z"/>
   <path class="fil2" d="M1186 437c12,-9 14,-9 30,-15 5,-2 10,-5 15,-8 11,-6 9,-1 17,-6 -15,2 -59,19 -71,29 -4,3 -3,5 -7,8 -4,4 -5,5 -8,8 7,1 13,1 19,1 23,2 6,11 34,-4 7,-4 9,-3 11,-11 -9,-7 -28,-3 -40,-2l0 0z"/>
   <path class="fil2" d="M777 898c10,-11 4,-8 28,-10 -3,6 1,4 -5,6 -1,1 -5,1 -7,2 -6,1 -10,1 -16,2zm30 -18c-3,3 4,1 -4,3l-22 0c-5,7 -8,8 -14,14l6 1 21 0c15,-2 5,-1 8,3l-30 4c-5,8 -11,15 -5,22l12 -7c3,-4 3,-9 10,-11l30 -10 -2 -9c-7,1 -8,2 -11,5 2,-18 10,4 12,-51 -4,0 -1,4 -2,8 -1,4 -1,6 -3,10 -2,7 -4,12 -6,18l0 0z"/>
   <path class="fil1" d="M1949 1425c-2,-2 -4,-3 -7,-5l-25 -19c-22,-14 -38,-28 -57,-46 -7,-7 -33,-29 -42,-33 4,5 0,0 4,5 12,13 51,43 57,53 10,20 12,17 32,27 10,5 30,16 38,18l0 0z"/>
   <path class="fil2" d="M1117 475c-2,6 -9,11 -14,15 -6,5 -6,7 -11,15 -11,17 -11,17 -14,41l8 -7c34,-29 11,-17 20,-40l20 -27c5,-4 9,-6 12,-10 -11,1 -13,10 -21,13l0 0z"/>
   <path class="fil2" d="M730 1099l6 -7 -31 3c-5,-8 -12,-19 -15,-29l13 -24 -7 -11c2,-1 4,-2 6,-5l6 -7 4 -7c-7,-1 -11,-2 -20,4 -4,2 -1,0 -4,3 4,3 -4,2 7,3 0,0 4,-1 5,-1 -3,8 -10,15 -13,23l7 7 -10 21c3,9 11,21 16,29 5,-1 10,-1 15,-2 3,0 15,-3 15,0l0 0z"/>
   <path class="fil2" d="M1815 1202c2,-1 3,0 0,-9l-10 -29c-4,-4 -7,-8 -10,-13 -6,-10 3,-24 -14,-25l1 14 -6 -2 -10 25 16 -12c6,6 32,43 33,51l0 0z"/>
   <path class="fil2" d="M1141 488c8,-1 20,-9 26,-12 -6,-6 -19,-7 -20,-10 0,-1 -1,-1 -1,-1 8,-8 3,-1 12,-14 -16,5 -19,18 -28,27l11 10 0 0z"/>
   <path class="fil2" d="M670 1075c8,-12 -1,-14 11,-16l-8 21 17 29c-6,-2 -3,0 -7,-7 -10,-14 -14,-16 -13,-27l0 0zm0 0c0,1 -1,2 -1,2 -1,0 -1,1 -1,1 -1,0 -1,1 -1,1 0,6 12,21 17,31 4,0 17,-2 22,-3 9,-1 12,0 20,-4l-32 4 -17 -30 9 -21c-2,0 -6,1 -7,1 -6,-1 -3,0 -6,-3 2,-1 -1,0 4,-2 1,0 2,0 3,0 9,-2 3,0 6,-4 -5,-1 -4,0 -12,1l-6 16 4 0 -2 10 0 0z"/>
   <path class="fil2" d="M905 1485c2,6 48,44 53,48 14,13 11,10 31,20 11,5 23,11 33,15 -7,-3 -57,-32 -63,-37 -11,-10 -45,-42 -54,-46l0 0z"/>
   <path class="fil1" d="M732 905l-2 20c9,1 20,2 26,-10l-13 0c-2,-4 -2,-1 -1,-9 2,-11 2,-9 -1,-11l-9 10 0 0z"/>
   <path class="fil1" d="M1798 1262c3,-4 2,-3 3,-8 -28,13 -11,23 -44,14 -16,-4 -9,-7 -13,-9l1 10c1,0 0,0 2,1 31,17 35,0 51,-8z"/>
   <path class="fil2" d="M1700 1319c6,-3 9,-7 13,-12 4,-5 8,-9 12,-13l0 -7c-23,13 -24,17 -25,32l0 0z"/>
   <path class="fil2" d="M757 885c-1,9 -4,13 -4,17 -2,8 0,4 1,6 7,-3 5,-12 9,-18 1,-2 14,-11 17,-13l26 3 -2 -3 -5 -1 -25 -1 -17 10 0 0z"/>
   <polygon class="fil1" points="763,976 762,993 777,984 773,971 "/>
   <path class="fil1" d="M670 1075c-1,11 3,13 13,27 4,7 1,5 7,7l-17 -29 8 -21c-12,2 -3,4 -11,16l0 0z"/>
   <path class="fil2" d="M1248 406c6,3 4,3 14,0 23,-8 26,-6 39,-19 -17,4 -31,16 -53,19l0 0z"/>
   <polygon class="fil1" points="1780,1203 1787,1217 1795,1202 1790,1195 "/>
   <path class="fil2" d="M1073 526c-8,10 -11,21 -14,37 9,-4 7,-6 10,-17 1,-7 3,-13 4,-20l0 0z"/>
   <path class="fil1" d="M696 958c8,-4 9,-6 13,-16 3,-8 8,-14 10,-22 -5,4 -9,12 -13,17 -5,8 -7,11 -10,21l0 0z"/>
   <path class="fil1" d="M777 898c6,-1 10,-1 16,-2 2,-1 6,-1 7,-2 6,-2 2,0 5,-6 -24,2 -18,-1 -28,10z"/>
   <path class="fil2" d="M1051 549c-1,10 -7,18 -9,29 8,-4 7,-5 10,-16 2,-7 5,-13 6,-20 -2,2 -2,2 -3,3 -5,5 -1,2 -4,4l0 0z"/>
   <path class="fil1" d="M766 875c-3,4 -2,2 -5,4 -1,1 -2,2 -3,3 -2,3 0,0 -1,3l17 -10 25 1c-5,-3 -26,-9 -32,-2 0,0 -1,1 -1,1l0 0z"/>
   <path class="fil2" d="M681 1012c-2,6 -3,8 -4,13l7 1c2,-5 2,-4 4,-8 2,-6 1,0 1,-7l-8 1 0 0z"/>
   <path class="fil2" d="M736 1092l7 23c1,3 1,2 2,4l-1 -22 -3 1 1 -10 -6 4z"/>
   <path class="fil1" d="M1051 549c3,-2 -1,1 4,-4 1,-1 1,-1 3,-3l9 -18c-8,3 -6,3 -10,11 -3,5 -5,7 -6,14z"/>
   <path class="fil1" d="M1794 1292c-7,3 -7,4 -11,10 6,1 4,1 11,4l0 -14z"/>
   <path class="fil2" d="M1141 488l-9 -5 1 13c5,-2 6,-4 8,-8l0 0z"/>
   <path class="fil2" d="M1077 520c5,-5 10,-12 12,-20 -2,1 -1,0 -3,2 -5,5 -6,10 -9,18z"/>
   <path class="fil2" d="M686 1036c2,-4 4,-7 6,-10 -7,2 -10,7 -12,19l6 -9 0 0z"/>
   <path class="fil2" d="M905 1485c-3,-5 -4,-4 -9,-8 -8,-8 -3,-6 -11,-7 4,4 14,13 20,15l0 0z"/>
   <path class="fil2" d="M1626 1217l5 11 6 -5c-2,-2 -1,-1 -3,-3 -1,0 -2,-1 -3,-1 -2,-1 -2,-1 -5,-2z"/>
   <path class="fil2" d="M854 705c5,-2 3,-1 6,-7 1,-3 2,-6 3,-10 -2,1 0,0 -2,2 -1,2 -2,4 -3,5 -2,4 -2,7 -4,10z"/>
   <path class="fil2" d="M774 1102c5,-5 4,-17 7,-28 -1,7 -8,23 -7,28z"/>
   <path class="fil2" d="M1763 628c0,-6 -2,-10 -5,-14 -2,2 -2,-1 -1,3 0,0 1,3 2,4 1,3 3,5 4,7l0 0z"/>
   <path class="fil2" d="M674 1042c7,-3 4,4 8,-7 -10,1 -6,-2 -8,7z"/>
   <path class="fil1" d="M902 611c0,1 6,-9 4,-12 -2,4 -4,7 -4,12z"/>
   <path class="fil2" d="M1720 1311c4,-2 5,-5 7,-8l-7 8z"/>
   <path class="fil2" d="M1652 1445l8 -10c-3,4 -5,6 -8,10z"/>
   <polygon class="fil2" points="1073,526 1077,520 "/>
   <polygon class="fil2" points="792,1021 795,1016 "/>
   <polygon class="fil2" points="1702,1361 1700,1368 "/>
   <polygon class="fil1" points="708,978 718,959 "/>
  </g>
 </g>
 <g id="Layer_x0020_1_0">
  <metadata id="CorelCorpID_1Corel-Layer"/>
  <g id="_601260544">
  </g>
 </g>
</svg>
