<?xml version="1.0" encoding="UTF-8"?>
<!DOCTYPE svg PUBLIC "-//W3C//DTD SVG 1.1//EN" "http://www.w3.org/Graphics/SVG/1.1/DTD/svg11.dtd">
<!-- Creator: CorelDRAW X7 -->
<svg xmlns="http://www.w3.org/2000/svg" xml:space="preserve" width="821px" height="385px" version="1.1" style="shape-rendering:geometricPrecision; text-rendering:geometricPrecision; image-rendering:optimizeQuality; fill-rule:evenodd; clip-rule:evenodd"
viewBox="0 0 403 189"
 xmlns:xlink="http://www.w3.org/1999/xlink">
 <defs>
  <style type="text/css">
   <![CDATA[
    .fil0 {fill:white;fill-rule:nonzero}
   ]]>
  </style>
 </defs>
 <g id="Layer_x0020_1">
  <metadata id="CorelCorpID_0Corel-Layer"/>
  <g id="logo.pdf">
   <path class="fil0" d="M68 7c0,6 -4,8 -6,8 -1,0 -2,0 -2,-1 0,-1 0,-2 0,-3 0,-5 -2,-8 -4,-8 -3,0 -5,2 -8,7 -2,5 -5,14 -7,26 0,0 1,1 1,1l12 -1c0,0 1,1 1,2 0,0 -1,2 -1,2l-13 1c0,0 -1,1 -1,1 -2,12 -3,18 -6,34 -2,9 -7,16 -13,21 -4,3 -9,5 -13,5 -4,0 -8,-3 -8,-6 0,-2 2,-4 3,-5 0,-1 1,-1 2,-1 3,4 7,6 10,6 2,0 5,-1 8,-17 2,-12 4,-26 6,-36 0,-1 0,-2 -1,-2l-8 1c-1,0 -1,-1 -1,-2 0,-1 1,-2 1,-2l9 -1c1,0 1,-1 1,-1 4,-15 9,-27 16,-32 4,-3 8,-4 12,-4l0 0c6,0 10,4 10,7z"/>
   <path class="fil0" d="M68 67c0,2 1,4 1,4 2,2 5,3 7,3 12,0 20,-11 20,-23 0,-7 -4,-12 -11,-12 -9,0 -17,6 -17,28zm27 8c-5,5 -11,7 -15,7 -4,0 -8,-3 -11,-7 0,0 -1,0 -1,1 0,7 1,25 2,30 0,3 1,5 1,7 0,0 -1,2 -2,2 -1,0 -4,0 -6,-1 -2,-1 -3,-4 -3,-5 0,-2 1,-40 1,-54 0,-9 3,-15 8,-20 4,-3 9,-4 12,-4 11,0 21,12 21,25 0,8 -3,14 -7,19z"/>
   <path class="fil0" d="M145 40c0,1 -1,1 -1,1 -15,0 -26,8 -26,19 0,7 4,11 11,11 3,0 8,0 11,0 2,0 4,1 5,2 1,2 2,5 2,8 0,10 -8,21 -15,21 -1,0 -3,0 -4,-2 -1,-1 -2,-3 -1,-4 0,-1 0,-2 2,-2 7,-2 13,-7 13,-10 0,-1 0,-3 -2,-3 -3,0 -9,1 -13,1 -4,0 -6,-1 -8,-3 -3,-3 -6,-8 -6,-17 0,-10 6,-20 11,-24 7,-5 12,-7 16,-7 3,0 7,2 7,5 0,1 -1,3 -2,4z"/>
   <path class="fil0" d="M168 47c-3,3 -6,9 -5,15 0,3 2,7 5,10 2,1 5,1 6,1 4,0 10,-1 14,-6 4,-3 6,-9 6,-15 0,-2 0,-4 0,-5 -1,-2 -5,-7 -11,-7 -5,0 -11,2 -15,7zm22 -11c7,5 9,13 9,20 0,10 -4,17 -7,21 -5,5 -12,6 -15,6 -3,0 -8,-2 -13,-7 -4,-5 -6,-12 -6,-18 0,-7 1,-13 6,-18 4,-6 11,-9 16,-9 4,0 7,2 10,5z"/>
   <path class="fil0" d="M225 34c1,3 1,7 1,10 0,4 -1,11 -1,13 0,1 1,1 1,0 5,-11 9,-18 13,-22 3,-2 6,-4 9,-4 3,0 6,4 7,8 0,2 1,6 1,10 0,36 0,59 0,63 0,0 -2,1 -2,1 -2,0 -8,-2 -8,-4 -1,-1 -1,-3 0,-7 1,-10 5,-51 5,-55 0,-4 -1,-7 -4,-7 -2,0 -6,1 -9,7 -5,8 -8,16 -13,35 0,0 -1,1 -2,1 -1,0 -4,-2 -4,-2 -1,-1 -1,-2 -1,-2 0,-2 3,-14 3,-19 1,-4 2,-12 -1,-15 -1,-2 -3,-3 -4,-3 -2,0 -3,0 -4,1 -1,0 -2,-1 -2,-1 0,-2 1,-4 1,-5 3,-5 7,-6 9,-6 2,0 3,1 5,3z"/>
   <path class="fil0" d="M328 7c0,6 -4,8 -6,8 -1,0 -2,0 -2,-1 0,-1 0,-2 0,-3 0,-5 -2,-8 -4,-8 -3,0 -5,2 -8,7 -2,5 -5,14 -7,26 0,0 1,1 1,1l12 -1c0,0 1,1 1,2 0,0 -1,2 -1,2l-13 1c0,0 -1,1 -1,1 -2,12 -3,18 -6,34 -2,9 -7,16 -13,21 -4,3 -8,5 -12,5 -4,0 -7,-3 -7,-6 0,-2 1,-4 2,-5 1,-1 2,-1 2,-1 3,4 6,6 9,6 2,0 5,-1 8,-17 2,-12 4,-26 6,-36 0,-1 0,-2 -1,-2l-8 1c-1,0 -1,-1 -1,-2 0,-1 1,-2 1,-2l9 -1c1,0 1,-1 1,-1 4,-15 9,-27 16,-32 4,-3 8,-4 12,-4l0 0c7,0 10,4 10,7z"/>
   <path class="fil0" d="M16 147c0,1 1,1 2,1 1,0 1,0 2,0 2,1 2,2 1,4l-7 19c-2,4 -3,5 -6,5 -1,0 -1,0 -1,1 0,0 0,0 1,0 2,0 3,0 5,0 2,0 4,0 5,0 1,0 1,0 1,-1 0,0 0,0 -1,0 -3,-1 -3,-2 -2,-6 1,-3 6,-15 6,-16 0,0 1,0 1,0 0,1 1,7 2,13 0,3 0,6 0,8 0,1 1,1 1,1 0,0 1,0 1,-1 2,-2 3,-4 5,-7 2,-3 9,-12 12,-15 0,-1 0,-1 0,0 -1,5 -5,16 -6,20 0,1 -1,3 -3,3 -1,0 -2,0 -2,1 0,0 0,0 2,0 1,0 2,0 4,0 2,0 5,0 6,0 1,0 1,0 1,0 0,-1 0,-1 -1,-1 -2,0 -3,-1 -2,-4 0,-4 3,-15 5,-21 1,-1 1,-3 4,-3 1,0 2,0 2,-1 0,0 0,0 -1,0 -2,0 -4,0 -7,0 0,0 0,0 0,1 -1,0 -2,3 -5,5 -2,2 -10,13 -11,16 -1,0 -1,0 -1,0 0,-1 0,-2 -1,-7 -1,-3 -2,-12 -2,-14 -1,-1 -1,-1 -1,-1 0,0 -1,0 -2,0 -2,0 -4,0 -5,0 -1,0 -2,0 -2,0zm47 11c-2,0 -4,1 -6,3 -3,3 -5,9 -5,12 0,3 2,5 4,5 1,0 2,-1 4,-1 3,-2 8,-7 8,-14 0,-2 -2,-5 -5,-5zm0 1c1,0 2,1 2,3 0,4 -3,10 -5,12 -2,2 -3,2 -3,2 -2,0 -2,-1 -2,-2 0,-4 2,-10 5,-13 1,-1 2,-2 3,-2zm21 -1c0,0 -2,0 -3,1 -2,1 -4,3 -6,7 -2,2 -2,5 -2,7 0,2 1,4 3,4 2,0 5,-1 7,-3 0,0 0,-1 0,-1 0,0 0,0 0,0 -2,1 -4,2 -5,2 -1,0 -2,0 -2,-2 0,-3 1,-7 3,-10 1,-2 2,-3 3,-3 1,0 2,1 2,2 1,0 1,0 1,0 0,0 2,-1 2,-3 0,0 0,0 -1,0 0,-1 -1,-1 -2,-1zm23 0c-3,0 -8,7 -10,9 -1,1 -1,0 -1,0l2 -7c1,0 1,-1 0,-1 0,0 -1,-1 -1,-1 -4,0 -6,4 -6,5 0,0 0,0 0,0 0,0 0,0 0,0 2,-1 3,-2 4,-2 0,0 1,0 0,0 -1,3 -3,9 -5,13 0,1 -1,2 -1,2 0,1 1,2 2,2 0,0 1,-1 2,-3 0,0 1,-2 1,-3 1,-2 2,-3 3,-3 0,0 0,1 1,2 0,2 0,2 1,4 0,2 1,3 2,3 2,0 4,-1 6,-4 0,-1 0,-2 0,-2 0,0 0,0 0,0 -1,1 -2,3 -4,3 -1,0 -2,-2 -2,-4 -1,-1 -1,-3 -2,-4 0,0 0,0 0,-1 3,-3 5,-5 8,-5 1,0 1,0 2,0 0,0 0,0 0,0 0,-2 -1,-3 -2,-3zm21 4c0,-2 -1,-4 -4,-4 -4,0 -7,2 -9,7 -1,2 -2,4 -3,6 0,3 0,5 1,5 1,1 3,2 4,2 5,0 9,-4 9,-7 0,-3 -1,-4 -3,-4 -1,0 -1,-1 0,-1 2,-1 5,-2 5,-4zm-5 9c0,2 -3,5 -6,5 -1,0 -2,-1 -2,-2 0,-1 1,-3 1,-4 0,-1 1,-2 1,-2 1,0 2,0 3,0 2,0 3,2 3,3zm0 -12c2,0 2,2 2,3 0,3 -6,5 -8,5 0,0 0,0 0,0 1,-3 3,-8 6,-8zm23 0c-1,0 -2,0 -3,1 -4,2 -7,7 -10,11 -1,2 -2,4 -2,5 0,1 1,2 2,2 3,0 8,-5 10,-7 1,0 1,0 1,0 -1,2 -2,4 -2,5 0,1 1,2 2,2 2,0 5,-2 6,-5 1,0 1,-1 1,-1 0,0 0,-1 -1,0 -1,1 -3,2 -3,2 -1,0 -2,0 -1,-1 0,-3 4,-12 5,-14 0,0 0,0 0,0 -1,-1 -2,-1 -2,-1 0,0 0,0 0,0l-1 2c0,0 -1,0 -1,0 0,-1 -1,-1 -1,-1zm-1 2c0,0 1,1 1,1 1,0 1,1 0,2 -1,2 -3,6 -5,8 -2,2 -4,3 -5,3 0,0 -1,-1 -1,-1 0,-3 3,-7 4,-9 2,-2 4,-4 6,-4zm14 10c-2,0 -3,1 -3,2 0,1 0,1 1,1 0,0 1,0 1,2 0,2 -1,4 -4,5 -1,0 -1,1 -1,1 0,0 1,1 1,0 2,0 8,-3 8,-7 0,-2 -1,-4 -3,-4zm35 -12c0,0 -2,0 -2,1 -4,2 -8,7 -11,11 -1,2 -2,4 -2,5 0,1 2,2 3,2 3,0 7,-5 10,-7 0,0 0,0 0,0 -1,2 -2,4 -2,5 0,1 1,2 2,2 2,0 5,-2 7,-5 0,0 0,-1 0,-1 0,0 0,-1 -1,0 -1,1 -2,2 -3,2 -1,0 -1,0 -1,-1 1,-3 4,-12 5,-14 0,0 0,0 0,0 0,-1 -1,-1 -2,-1 0,0 0,0 0,0l-1 2c0,0 0,0 0,0 -1,-1 -2,-1 -2,-1zm-1 2c0,0 1,1 2,1 0,0 0,1 0,2 -2,2 -4,6 -6,8 -2,2 -3,3 -5,3 0,0 -1,-1 -1,-1 0,-3 3,-7 5,-9 1,-2 4,-4 5,-4zm28 -3c-1,0 -3,1 -5,2 -1,2 -4,6 -5,7 0,0 -1,0 -1,0l3 -7c0,0 0,-1 0,-1 0,0 -1,-1 -2,-1 -4,0 -6,4 -6,5 0,0 0,0 1,0 0,0 0,0 0,0 1,-1 2,-2 4,-2 0,0 0,0 0,1 -1,3 -3,8 -5,11 0,0 -1,3 -1,3 0,1 1,2 1,2 1,0 1,-1 3,-3 1,-2 5,-9 7,-11 3,-3 4,-4 5,-4 1,0 2,0 1,2 0,1 -6,13 -6,13 -1,1 0,2 0,2 0,0 1,1 1,1 2,0 6,-3 8,-5 0,-1 0,-1 0,-2 0,0 0,0 -1,0 -1,2 -3,3 -4,3 0,0 0,0 0,-1 1,-1 3,-7 4,-9 1,-2 1,-2 1,-3 0,-1 -1,-3 -3,-3zm26 5c0,-3 -3,-5 -8,-5 0,0 0,0 0,0 1,-1 1,-2 1,-2 0,-1 0,-1 -1,-1 0,0 -1,0 -2,0 0,1 0,2 -1,3 0,0 0,1 0,1 -1,0 -4,1 -5,2 0,0 -1,1 -1,1 0,0 0,0 1,0 1,-1 3,-1 4,-2 0,0 0,1 0,1l-7 25c-1,1 -1,2 -3,2 -1,0 -1,0 -1,1 0,0 0,0 1,0 1,0 4,0 5,0 1,0 2,0 3,0 1,0 1,0 1,-1 0,0 0,0 -1,0 -1,-1 -2,-1 -2,-2 1,-3 1,-4 2,-9 1,0 2,1 3,1 0,0 1,-1 2,-1 5,-2 9,-8 9,-14zm-3 0c0,5 -3,10 -6,12 -1,1 -2,1 -2,1 -1,0 -1,0 -2,-1 0,0 0,-1 0,-1 2,-5 3,-9 5,-14 0,0 0,0 0,0 2,0 5,1 5,3zm20 -5c-2,0 -4,1 -7,4 -3,3 -5,7 -5,11 0,3 3,5 4,5 3,0 6,-3 8,-4 0,-1 0,-1 0,-1 0,-1 0,-1 0,-1 0,0 -1,0 -1,1 -2,1 -3,2 -5,2 -1,0 -2,0 -2,-3 0,-1 0,-2 0,-3 0,-1 1,-1 1,-1 2,-1 5,-2 7,-2 2,-2 3,-4 3,-5 0,-1 0,-3 -3,-3zm0 1c0,0 1,1 1,1 0,4 -5,6 -8,7 0,0 0,0 0,-1 1,-2 4,-7 7,-7zm22 -1c-1,0 -2,0 -3,1 -2,1 -3,3 -5,6 -2,4 -4,7 -5,8 0,1 -3,2 -5,1 0,0 0,1 0,1 -1,1 1,3 1,3 1,0 2,-1 3,-2 2,-1 4,-4 6,-9 2,-4 4,-6 6,-6 0,0 0,0 0,0 -1,3 -4,12 -5,14 0,1 0,1 0,2 0,0 1,1 1,1 2,0 5,-2 7,-5 1,0 1,-1 1,-1 0,-1 0,-1 0,-1 -2,2 -4,3 -4,3 -1,0 -1,-1 -1,-2 1,-2 3,-10 4,-13 0,0 0,-1 0,-1 0,0 0,0 -1,0zm12 10c1,-2 3,-6 4,-8 0,0 0,0 0,-1 0,0 0,-1 -1,-1 -2,0 -5,2 -7,4 0,0 0,1 0,1 0,0 0,0 0,0 1,0 3,-2 4,-2 0,0 1,0 0,1 -1,2 -1,3 -2,5 -1,3 -2,6 -2,7 0,3 2,4 4,4 1,0 2,-1 5,-2 3,-1 5,-5 5,-8 0,-1 0,-2 -1,-3 0,0 -1,0 -2,0 -2,0 -4,1 -6,3 0,0 -1,0 -1,0zm6 -2c1,0 1,1 1,2 0,2 -1,4 -3,7 -1,1 -3,2 -4,2 -1,0 -1,-2 -1,-3 0,-1 0,-2 1,-4 3,-3 5,-4 6,-4zm33 -8c-3,0 -5,1 -6,3 -1,1 -2,2 -2,2 0,1 0,1 0,1 1,0 1,0 1,-1 1,-1 3,-3 5,-3 2,0 3,2 3,3 0,1 -2,4 -4,6 -4,3 -9,6 -10,7 0,0 0,0 0,1 0,0 1,0 1,0 1,0 3,0 4,0 1,0 6,0 7,0 1,0 1,0 2,-1 0,0 1,-2 2,-3 0,-1 0,-2 0,-2 -1,0 -1,1 -1,1 -1,2 -2,2 -4,2 -1,0 -4,0 -6,0 -1,0 0,0 0,0 1,-1 5,-4 8,-6 3,-2 4,-3 4,-6 0,-1 -1,-4 -4,-4zm23 0c-2,0 -5,2 -7,5 -3,3 -4,7 -4,10 0,3 2,4 3,4 2,0 4,0 5,-1 5,-3 8,-8 8,-13 0,-2 -1,-5 -5,-5zm0 1c2,0 2,1 2,2 0,4 -3,11 -5,13 -2,2 -3,2 -4,2 -1,0 -1,-1 -1,-1 0,-5 2,-10 5,-13 1,-2 3,-3 3,-3zm14 0c0,1 1,1 2,1 2,0 2,1 1,2 0,2 -3,11 -4,12 -1,1 -1,1 -4,2 0,0 -1,0 -1,1 0,0 1,0 1,0 1,0 5,0 6,0l4 0c1,0 1,0 1,-1 0,0 0,0 -1,0 -2,-1 -3,-1 -2,-2 0,-2 3,-10 4,-12 0,-2 1,-2 3,-2 1,0 1,-1 1,-1 0,0 0,0 -1,0 -1,0 -3,0 -8,0 -1,0 -2,0 -2,0zm23 0c-1,0 -2,1 -2,1 -1,1 -3,4 -3,5 0,0 -1,1 -1,1 0,0 1,1 1,2 2,3 4,4 4,8 0,4 -3,6 -6,6 -1,0 -2,0 -3,0 0,0 0,0 -1,0 0,1 -1,1 -1,2 0,0 1,1 2,1 1,0 2,0 3,-1 5,-2 9,-5 9,-10 0,-4 -3,-6 -5,-9 0,-1 0,-1 0,-1 0,-1 1,-2 2,-3 0,0 0,0 0,0 1,0 5,0 6,0 0,0 0,0 0,0 1,0 1,-2 1,-3 0,0 0,0 0,0 0,0 -5,1 -6,1z"/>
  </g>
 </g>
</svg>
