<?xml version="1.0" encoding="UTF-8"?>
<!DOCTYPE svg PUBLIC "-//W3C//DTD SVG 1.1//EN" "http://www.w3.org/Graphics/SVG/1.1/DTD/svg11.dtd">
<svg xmlns="http://www.w3.org/2000/svg" xml:space="preserve" width="1600px" height="800px" version="1.1" style="shape-rendering:geometricPrecision; text-rendering:geometricPrecision; image-rendering:optimizeQuality; fill-rule:evenodd; clip-rule:evenodd"
viewBox="0 0 1441 720" xmlns:xlink="http://www.w3.org/1999/xlink">
 <defs>
  <style type="text/css">
   <![CDATA[
    .fil1 {fill:black}
    .fil2 {fill:white}
   ]]>
  </style>
 </defs>
 <g id="Meetup_black">
  <path class="fil1" d="M1172 234c-5,-22 -9,-45 -13,-67 -1,0 -2,0 -2,0 0,9 0,17 0,26 -1,8 -2,17 -2,26 0,7 -6,5 -11,7 -4,1 -6,0 -8,-5 -3,-7 -6,-14 -11,-22 1,6 1,11 1,16 1,7 -6,14 -12,12 -2,0 -5,-5 -5,-8 -1,-17 -2,-35 -3,-52 0,-8 1,-16 1,-24 0,-6 4,-7 8,-8 4,-1 9,-1 10,5 5,13 9,25 14,38 3,-16 6,-32 9,-49 0,-2 1,-4 1,-6 2,-3 1,-8 8,-8 6,1 11,1 12,9 3,19 6,39 9,58 2,12 3,24 6,35 3,14 1,14 -12,17z"/>
  <path class="fil1" d="M1382 279c-13,0 -13,0 -15,-13 -1,-10 -1,-21 -3,-31 -1,-6 -3,-12 -4,-17 0,-3 0,-6 0,-8 2,-5 4,-10 5,-15 3,-15 5,-30 9,-46 1,-7 6,-13 10,-19 4,-5 8,-5 14,-3 12,6 15,15 16,27 2,24 -6,45 -22,62 -1,2 -2,4 -4,4 -10,4 -10,12 -9,20 1,13 2,26 3,39zm14 -134c-12,17 -13,38 -15,57 16,-16 20,-35 15,-57z"/>
  <path class="fil1" d="M1201 188c-1,10 -1,20 4,29 3,5 6,6 12,3 7,-4 10,-3 15,6 -9,5 -19,10 -29,5 -11,-4 -18,-14 -18,-26 0,-17 2,-34 3,-51 1,-11 8,-20 15,-28 4,-4 19,1 19,8 1,17 2,34 2,51 0,1 -4,4 -7,4 -5,1 -9,-1 -16,-1zm7 -36c-7,14 -7,20 0,22l0 -22z"/>
  <path class="fil1" d="M1244 192c-2,10 1,18 5,25 4,6 12,5 17,-1 1,-1 2,-2 3,-3 9,4 9,9 1,14 -13,8 -29,3 -36,-11 -7,-14 -6,-27 -4,-41 2,-10 2,-19 5,-28 3,-9 9,-17 13,-26 1,-1 4,-2 6,-2 8,2 14,9 14,17 -1,18 -2,35 -4,52 0,7 -6,6 -10,6 -3,0 -6,-1 -10,-2zm8 -39c0,0 -1,0 -2,0 -1,7 -3,15 -4,22 0,2 2,4 3,5 1,-1 3,-3 3,-4 0,-8 0,-15 0,-23z"/>
  <path class="fil1" d="M1287 235l0 -45c-5,-5 -17,1 -15,-11 0,-4 1,-5 13,-5 0,-9 -1,-18 -1,-27 -1,-18 -2,-37 -2,-56 0,-4 -2,-10 5,-10 5,0 12,7 12,12 0,22 1,45 1,67 0,4 -1,8 -2,12 1,0 2,0 2,0 1,-2 1,-5 2,-7 1,-1 1,-1 2,-1 4,5 8,11 13,18 -7,2 -12,4 -18,5 0,13 0,25 0,38 0,9 0,10 -12,10z"/>
  <path class="fil1" d="M1337 216c6,-9 9,-19 9,-29 1,-7 0,-15 0,-22 0,-3 2,-6 3,-9 2,1 5,2 7,3 5,3 7,8 7,14 0,20 -9,36 -18,52 -2,3 -9,4 -14,4 -3,0 -7,-4 -8,-7 -2,-15 -4,-30 -6,-44 0,-6 0,-11 0,-17 0,-7 2,-8 8,-4 6,3 9,8 9,16 0,14 0,28 0,42 1,1 2,1 3,1z"/>
 </g>
 <g id="Meetup_white">
  <path class="fil2" d="M1172 594c-5,-22 -9,-44 -13,-67 -1,0 -2,0 -2,0 0,9 0,17 0,26 -1,8 -2,17 -2,26 0,7 -6,5 -11,7 -4,1 -6,0 -8,-5 -3,-7 -6,-14 -11,-21 1,5 1,10 1,15 1,7 -6,14 -12,12 -2,0 -5,-5 -5,-8 -1,-17 -2,-35 -3,-52 0,-8 1,-16 1,-24 0,-5 4,-7 8,-8 4,0 9,-1 10,5 5,13 9,26 14,39 3,-17 6,-33 9,-50 0,-2 1,-4 1,-6 2,-3 1,-8 8,-7 6,0 11,0 12,8 3,19 6,39 9,58 2,12 3,24 6,36 3,13 1,13 -12,16z"/>
  <path class="fil2" d="M1382 639c-13,0 -13,0 -15,-13 -1,-10 -1,-20 -3,-31 -1,-6 -3,-11 -4,-17 0,-3 0,-5 0,-8 2,-5 4,-9 5,-14 3,-16 5,-31 9,-46 1,-7 6,-14 10,-20 4,-5 8,-5 14,-2 12,5 15,15 16,26 2,25 -6,45 -22,63 -1,1 -2,3 -4,3 -10,4 -10,12 -9,20 1,13 2,26 3,39zm14 -134c-12,18 -13,38 -15,57 16,-16 20,-35 15,-57z"/>
  <path class="fil2" d="M1201 548c-1,10 -1,20 4,29 3,5 6,6 12,3 7,-4 10,-3 15,6 -9,6 -19,10 -29,5 -11,-4 -18,-14 -18,-25 0,-18 2,-35 3,-52 1,-11 8,-20 15,-27 4,-5 19,0 19,7 1,17 2,34 2,51 0,2 -4,4 -7,5 -5,0 -9,-1 -16,-2zm7 -36c-7,14 -7,20 0,22l0 -22z"/>
  <path class="fil2" d="M1244 552c-2,10 1,18 5,26 4,5 12,4 17,-2 1,-1 2,-2 3,-3 9,5 9,9 1,14 -13,8 -29,3 -36,-11 -7,-13 -6,-27 -4,-41 2,-9 2,-19 5,-28 3,-9 9,-17 13,-26 1,-1 4,-2 6,-1 8,1 14,8 14,16 -1,18 -2,35 -4,52 0,7 -6,7 -10,6 -3,0 -6,-1 -10,-2zm8 -38c0,-1 -1,-1 -2,-1 -1,7 -3,15 -4,22 0,2 2,4 3,5 1,-1 3,-2 3,-4 0,-7 0,-15 0,-22z"/>
  <path class="fil2" d="M1287 595l0 -44c-5,-6 -17,0 -15,-12 0,-4 1,-5 13,-5 0,-9 -1,-18 -1,-27 -1,-18 -2,-37 -2,-56 0,-4 -2,-10 5,-10 5,0 12,7 12,12 0,23 1,45 1,67 0,4 -1,8 -2,12 1,0 2,0 2,0 1,-2 1,-5 2,-7 1,0 1,-1 2,-1 4,5 8,11 13,18 -7,2 -12,4 -18,5 0,13 0,26 0,38 0,9 0,10 -12,10z"/>
  <path class="fil2" d="M1337 576c6,-9 9,-19 9,-29 1,-7 0,-15 0,-22 0,-3 2,-6 3,-8 2,0 5,1 7,2 5,3 7,8 7,15 0,19 -9,35 -18,51 -2,3 -9,5 -14,4 -3,0 -7,-4 -8,-7 -2,-15 -4,-29 -6,-44 0,-6 0,-11 0,-17 0,-6 2,-7 8,-4 6,3 9,8 9,16 0,14 0,28 0,43 1,0 2,0 3,0z"/>
 </g>
 <g id="Facebook_black">
  <path class="fil1" d="M878 278l0 -93 -25 0 0 -32 25 0c0,0 0,-13 0,-28 0,-22 12,-42 47,-42 13,0 23,0 23,0l0 32c0,0 -10,0 -23,0 -12,0 -12,5 -12,13 0,7 0,-15 0,25l35 0 -3 32 -32 0 0 93 -35 0z"/>
 </g>
 <g id="Facebook_white">
  <path class="fil2" d="M878 638l0 -93 -25 0 0 -32 25 0c0,0 0,-13 0,-28 0,-22 12,-42 47,-42 13,0 23,0 23,0l0 32c0,0 -10,0 -23,0 -12,0 -12,5 -12,13 0,7 0,-15 0,25l35 0 -3 32 -32 0 0 93 -35 0z"/>
 </g>
 <g id="Google_black">
  <polygon class="fil1" points="650,133 613,133 613,98 603,98 603,133 565,133 565,145 603,145 603,180 613,180 613,145 650,145 "/>
  <path class="fil1" d="M488 273c-20,0 -38,-13 -38,-30 0,-15 20,-30 43,-30 5,0 10,2 15,2 10,8 20,13 22,23 0,2 0,5 0,7 0,15 -10,28 -42,28zm7 -98c-15,0 -30,-15 -32,-35 -3,-20 7,-35 22,-35 15,3 30,18 33,35 2,20 -8,35 -23,35zm30 30c-5,-5 -15,-12 -15,-17 0,-8 3,-10 10,-18 10,-7 18,-17 18,-30 0,-15 -8,-30 -20,-32l20 0 12 -10c0,0 -42,0 -57,0 -25,0 -50,20 -50,42 0,23 17,43 42,43 3,0 5,0 8,-3 -3,5 -5,8 -5,13 0,5 5,10 10,15 -5,0 -8,0 -10,0 -33,0 -58,20 -58,42 0,20 28,33 60,33 35,0 55,-20 55,-40 0,-18 -5,-28 -20,-38l0 0z"/>
 </g>
 <g id="Google_white">
  <polygon class="fil2" points="650,493 613,493 613,458 603,458 603,493 565,493 565,505 603,505 603,540 613,540 613,505 650,505 "/>
  <path class="fil2" d="M488 633c-20,0 -38,-13 -38,-30 0,-15 20,-30 43,-30 5,0 10,2 15,2 10,8 20,13 22,23 0,2 0,5 0,7 0,15 -10,28 -42,28zm7 -98c-15,0 -30,-15 -32,-35 -3,-20 7,-35 22,-35 15,3 30,18 33,35 2,20 -8,35 -23,35zm30 30c-5,-5 -15,-12 -15,-17 0,-8 3,-10 10,-18 10,-7 18,-17 18,-30 0,-15 -8,-30 -20,-32l20 0 12 -10c0,0 -42,0 -57,0 -25,0 -50,20 -50,42 0,23 17,43 42,43 3,0 5,0 8,-3 -3,5 -5,8 -5,13 0,5 5,10 10,15 -5,0 -8,0 -10,0 -33,0 -58,20 -58,42 0,20 28,33 60,33 35,0 55,-20 55,-40 0,-18 -5,-28 -20,-38l0 0z"/>
 </g>
 <g id="Twitter_black">
  <path class="fil1" d="M300 108c-10,5 -20,7 -27,7 10,-5 17,-15 20,-27 -10,7 -20,10 -30,12 -10,-10 -23,-15 -35,-15 -28,0 -48,23 -48,48 0,5 0,7 0,12 -40,-2 -75,-22 -97,-50 -5,5 -8,15 -8,23 0,17 10,32 23,40 -8,0 -15,-3 -23,-5 0,0 0,0 0,0 0,22 18,42 38,47 -3,0 -8,0 -13,0 -2,0 -5,0 -7,0 5,20 22,33 45,33 -18,12 -38,20 -60,20 -5,0 -8,0 -13,0 23,15 48,22 75,22 88,0 135,-72 135,-137 0,0 0,-3 0,-5 10,-8 18,-15 25,-25l0 0z"/>
 </g>
 <g id="Twitter_white">
  <path class="fil2" d="M300 468c-10,5 -20,7 -27,7 10,-5 17,-15 20,-27 -10,7 -20,10 -30,12 -10,-10 -23,-15 -35,-15 -28,0 -48,23 -48,48 0,5 0,7 0,12 -40,-2 -75,-22 -97,-50 -5,5 -8,15 -8,23 0,17 10,32 23,40 -8,0 -15,-3 -23,-5 0,0 0,0 0,0 0,22 18,42 38,47 -3,0 -8,0 -13,0 -2,0 -5,0 -7,0 5,20 22,33 45,33 -18,12 -38,20 -60,20 -5,0 -8,0 -13,0 23,15 48,22 75,22 88,0 135,-72 135,-137 0,0 0,-3 0,-5 10,-8 18,-15 25,-25l0 0z"/>
 </g>
</svg>
