<?xml version="1.0" encoding="UTF-8"?>
<!DOCTYPE svg PUBLIC "-//W3C//DTD SVG 1.1//EN" "http://www.w3.org/Graphics/SVG/1.1/DTD/svg11.dtd">
<svg xmlns="http://www.w3.org/2000/svg" xml:space="preserve" width="1500px" height="1000px" version="1.1" style="shape-rendering:geometricPrecision; text-rendering:geometricPrecision; image-rendering:optimizeQuality; fill-rule:evenodd; clip-rule:evenodd"
viewBox="0 0 1294 863"
 xmlns:xlink="http://www.w3.org/1999/xlink">
 <defs>
  <style type="text/css">
   <![CDATA[
    .fil0 {fill:none}
    .fil1 {fill:black}
    .fil2 {fill:white}
   ]]>
  </style>
 </defs>
 <g id="Layer_x0020_1">
  <path class="fil1" d="M331 146c-8,4 -17,6 -26,7 9,-5 17,-14 20,-25 -9,5 -19,9 -29,11 -9,-9 -21,-14 -34,-14 -25,0 -46,20 -46,46 0,3 0,7 1,10 -38,-2 -72,-20 -95,-48 -4,7 -6,15 -6,23 0,16 8,30 21,39 -8,-1 -15,-3 -21,-6 0,0 0,0 0,0 0,23 16,41 37,46 -4,1 -8,1 -12,1 -3,0 -6,0 -9,-1 6,19 23,32 43,32 -16,13 -36,20 -57,20 -4,0 -8,0 -11,-1 20,14 44,21 70,21 85,0 131,-70 131,-131 0,-2 0,-4 0,-6 9,-6 17,-15 23,-24z"/>
  <path class="fil2" d="M359 560c-10,5 -22,8 -33,9 12,-7 21,-18 25,-31 -11,6 -23,11 -36,14 -11,-11 -26,-18 -42,-18 -32,0 -58,25 -58,57 0,4 1,9 2,13 -48,-2 -90,-25 -118,-60 -5,9 -8,18 -8,29 0,20 10,37 25,48 -9,-1 -18,-3 -26,-8 0,1 0,1 0,1 0,28 20,51 46,56 -4,2 -9,2 -15,2 -3,0 -7,0 -11,-1 8,23 29,40 54,40 -20,16 -44,25 -71,25 -5,0 -9,0 -14,-1 26,16 56,26 88,26 106,0 163,-88 163,-163 0,-3 0,-5 0,-8 11,-8 21,-18 29,-30z"/>
  <polygon class="fil1" points="768,172 731,172 731,137 721,137 721,172 685,172 685,184 721,184 721,219 731,219 731,184 768,184 "/>
  <path class="fil1" d="M609 311c-22,0 -37,-14 -37,-31 0,-16 19,-29 41,-29 5,0 10,1 14,2 12,8 20,13 22,22 1,2 1,4 1,6 0,17 -10,30 -41,30zm6 -97c-15,-1 -29,-17 -31,-36 -3,-19 7,-34 22,-33 14,0 28,16 31,35 2,19 -8,34 -22,34zm30 28c-5,-4 -15,-12 -15,-18 0,-6 2,-9 11,-16 9,-7 16,-17 16,-29 0,-14 -6,-29 -18,-32l18 0 12 -10c0,0 -42,0 -56,0 -26,0 -50,19 -50,41 0,23 18,41 44,41 1,0 3,0 5,0 -2,4 -3,7 -3,11 0,6 3,11 8,16 -4,0 -7,0 -10,0 -32,0 -56,20 -56,40 0,21 27,34 58,34 36,0 56,-21 56,-41 0,-17 -5,-26 -20,-37z"/>
  <polygon class="fil2" points="791,591 747,591 747,549 734,549 734,591 691,591 691,606 734,606 734,649 747,649 747,606 791,606 "/>
  <path class="fil2" d="M598 760c-26,0 -45,-17 -45,-37 0,-20 23,-36 50,-36 6,0 12,1 17,3 14,10 24,15 27,27 1,2 1,4 1,7 0,20 -13,36 -50,36zm7 -118c-18,-1 -34,-20 -38,-43 -3,-23 9,-41 27,-41 18,1 35,19 38,43 3,23 -9,41 -27,41zm37 34c-6,-4 -18,-15 -18,-21 0,-7 2,-11 13,-20 11,-9 19,-21 19,-35 0,-17 -7,-35 -22,-39l22 0 15 -12c0,0 -51,0 -68,0 -31,0 -60,23 -60,50 0,28 21,50 52,50 2,0 4,0 6,0 -2,4 -3,8 -3,13 0,7 4,13 9,19 -4,0 -7,0 -12,0 -38,0 -67,24 -67,49 0,25 32,41 70,41 44,0 68,-25 68,-50 0,-20 -6,-32 -24,-45z"/>
  <path class="fil1" d="M1054 317l0 -95 -25 0 0 -34 25 0c0,0 0,-14 0,-29 0,-23 15,-44 49,-44 14,0 24,1 24,1l0 32c0,0 -11,0 -22,0 -12,0 -14,6 -14,15 0,8 0,-16 0,25l37 0 -2 34 -35 0 0 95 -37 0z"/>
  <path class="fil2" d="M1050 765l0 -111 -29 0 0 -39 29 0c0,0 0,-17 0,-34 0,-27 18,-51 57,-51 17,0 28,1 28,1l0 37c0,0 -13,0 -26,0 -14,0 -16,7 -16,18 0,8 0,-19 0,29l43 0 -2 39 -41 0 0 111 -43 0z"/>
 </g>
</svg>
